<svg xmlns="http://www.w3.org/2000/svg" xmlns:xlink="http://www.w3.org/1999/xlink" width="222" height="227" viewBox="0 0 222 227"><defs><linearGradient id="a" x1="0.5" x2="0.5" y2="1" gradientUnits="objectBoundingBox"><stop offset="0" stop-color="#9ba7c5"/><stop offset="1" stop-color="#485d92"/></linearGradient><filter id="b"><feOffset dy="3" input="SourceAlpha"/><feGaussianBlur stdDeviation="3" result="c"/><feFlood flood-opacity="0.161" result="d"/><feComposite operator="out" in="SourceGraphic" in2="c"/><feComposite operator="in" in="d"/><feComposite operator="in" in2="SourceGraphic"/></filter></defs><g transform="translate(-865 -427)"><circle cx="111" cy="111" r="111" transform="translate(865 432)" fill="#303e61"/><circle cx="111" cy="111" r="111" transform="translate(865 427)" fill="url(#a)"/><g data-type="innerShadowGroup"><circle cx="104.5" cy="104.5" r="104.5" transform="translate(871 434)" fill="#384c7e"/><g transform="matrix(1, 0, 0, 1, 865, 427)" filter="url(#b)"><circle cx="104.5" cy="104.5" r="104.5" transform="translate(6 7)" fill="#fff"/></g></g><circle cx="37" cy="37" r="37" transform="translate(939 502)" fill="#303e61"/><path d="M37,2A35.01,35.01,0,0,0,23.377,69.25,35.01,35.01,0,0,0,50.623,4.75,34.779,34.779,0,0,0,37,2m0-2A37,37,0,1,1,0,37,37,37,0,0,1,37,0Z" transform="translate(939 502)" fill="#303e61"/></g></svg>