<svg xmlns="http://www.w3.org/2000/svg" xmlns:xlink="http://www.w3.org/1999/xlink" width="18" height="18" viewBox="0 0 18 18"><defs><clipPath id="a"><rect width="18" height="18" transform="translate(-19071 -4023)" fill="none"/></clipPath></defs><g transform="translate(19071 4023)" clip-path="url(#a)"><path d="M18299.785-4009.713v-4.072h-4.072a2.714,2.714,0,0,1-2.711-2.716,2.71,2.71,0,0,1,2.711-2.711h4.072v-4.072a2.715,2.715,0,0,1,2.717-2.716,2.714,2.714,0,0,1,2.711,2.716v4.072h4.072a2.711,2.711,0,0,1,2.715,2.711,2.715,2.715,0,0,1-2.715,2.716h-4.072v4.072a2.71,2.71,0,0,1-2.711,2.712A2.712,2.712,0,0,1,18299.785-4009.713Z" transform="translate(-34843.918 -14115.727) rotate(45)" fill="#2b2b2b"/></g></svg>