<svg xmlns="http://www.w3.org/2000/svg" width="25.661" height="15.007" viewBox="0 0 25.661 15.007"><g transform="translate(-289.339 -411.496)"><path d="M165.669,101.3a2.83,2.83,0,1,0-1.943,0,4.586,4.586,0,0,0-3.809,4.419c0,2.492,9.562,2.492,9.562,0a4.587,4.587,0,0,0-3.809-4.419" transform="translate(145.521 316.544)" fill="#333"/><path d="M61.4,101.3a2.83,2.83,0,1,0-1.943,0,4.586,4.586,0,0,0-3.809,4.419c0,2.492,9.562,2.492,9.562,0A4.587,4.587,0,0,0,61.4,101.3" transform="translate(233.691 316.544)" fill="#333"/><path d="M106.533,97.211a3.607,3.607,0,1,0-2.477,0,5.847,5.847,0,0,0-4.856,5.633c0,3.177,12.189,3.177,12.189,0a5.847,5.847,0,0,0-4.856-5.633" transform="translate(196.865 321.276)" fill="#333"/></g></svg>