<?xml version="1.0" standalone="no"?>
<!DOCTYPE svg PUBLIC "-//W3C//DTD SVG 1.1//EN" "http://www.w3.org/Graphics/SVG/1.1/DTD/svg11.dtd">
<svg xmlns="http://www.w3.org/2000/svg">
<metadata>Copyright (C) 2022 by original authors @ fontello.com</metadata>
<defs>
<font id="rapo-icon-font" horiz-adv-x="1000" >
<font-face font-family="rapo-icon-font" font-weight="400" font-stretch="normal" units-per-em="1000" ascent="850" descent="-150" />
<missing-glyph horiz-adv-x="1000" />
<glyph glyph-name="bold" unicode="&#xe800;" d="M335 81h202a249 249 0 0 1 103 20 155 155 0 0 1 67 55 146 146 0 0 1 24 83 130 130 0 0 1-17 67 130 130 0 0 1-48 47 149 149 0 0 1-69 20v3a135 135 0 0 1 56 21 116 116 0 0 1 39 41 116 116 0 0 1 13 57 129 129 0 0 1-21 74 135 135 0 0 1-60 48 236 236 0 0 1-93 16h-196a68 68 0 0 1-50-18 69 69 0 0 1-18-51v-414a68 68 0 0 1 18-51 68 68 0 0 1 50-18z m69 93v149h86a127 127 0 0 0 75-19 63 63 0 0 0 26-54 67 67 0 0 0-25-56 116 116 0 0 0-72-20z m0 232v133h83a96 96 0 0 0 61-17 57 57 0 0 0 22-48 60 60 0 0 0-24-50 109 109 0 0 0-67-18z" horiz-adv-x="1000" />

<glyph glyph-name="gallery" unicode="&#xe801;" d="M408 111h320a65 65 0 0 1 47 16 65 65 0 0 1 17 48v14l-114 106a47 47 0 0 1-32 13 46 46 0 0 1-16-3 51 51 0 0 1-16-10l-96-85-38 35a44 44 0 0 1-14 9 41 41 0 0 1-15 3 35 35 0 0 1-14-3 56 56 0 0 1-13-9l-80-70a66 66 0 0 1 16-48 65 65 0 0 1 48-16z m94 179a49 49 0 0 1 36 15 50 50 0 0 1 15 36 49 49 0 0 1-7 26 53 53 0 0 1-18 19 51 51 0 0 1-62-8 50 50 0 0 1-15-36 50 50 0 0 1 15-37 49 49 0 0 1 36-15z m-276-53a81 81 0 0 1 30-55 82 82 0 0 1 62-9l34 5v49l-39-7a36 36 0 0 0-27 5 36 36 0 0 0-14 24l-39 220a36 36 0 0 0 5 28 36 36 0 0 0 24 14l320 56a37 37 0 0 0 27-4 35 35 0 0 0 14-25l12-68h48l-14 80a80 80 0 0 1-30 55 81 81 0 0 1-63 10l-326-58a82 82 0 0 1-55-30 79 79 0 0 1-10-62z m176-144h334a82 82 0 0 1 59 20 80 80 0 0 1 21 59v232a80 80 0 0 1-21 59 81 81 0 0 1-59 20h-334a82 82 0 0 1-60-20 80 80 0 0 1-20-59v-232a80 80 0 0 1 20-59 82 82 0 0 1 60-20z m3 48a36 36 0 0 0-26 8 36 36 0 0 0-9 27v224a36 36 0 0 0 9 26 35 35 0 0 0 26 9h328a36 36 0 0 0 26-9 36 36 0 0 0 9-26v-224a35 35 0 0 0-9-27 36 36 0 0 0-26-8z" horiz-adv-x="1000" />

<glyph glyph-name="color-brush" unicode="&#xe802;" d="M217 120a161 161 0 0 1 52-41 184 184 0 0 1 63-18 172 172 0 0 1 65 5 146 146 0 0 1 57 31 132 132 0 0 1 39 54 109 109 0 0 1 5 61 131 131 0 0 1-31 60 134 134 0 0 1-49 37 96 96 0 0 1-104-18 85 85 0 0 1-22-26 114 114 0 0 1-9-26q-3-13-6-23a30 30 0 0 0-10-17 35 35 0 0 0-19-8l-19-2a32 32 0 0 1-19-9 30 30 0 0 1-10-27 65 65 0 0 1 17-33z m72 17a6 6 0 0 0-2 4 5 5 0 0 0 1 4 33 33 0 0 0 6 3q4 2 8 4a35 35 0 0 1 8 7 61 61 0 0 1 15 21 157 157 0 0 1 7 22 123 123 0 0 0 7 21 57 57 0 0 0 15 20 43 43 0 0 0 23 11 49 49 0 0 0 25-4 68 68 0 0 0 24-17 57 57 0 0 0 11-63 80 80 0 0 0-23-29 100 100 0 0 0-30-18 103 103 0 0 0-33-7 96 96 0 0 0-34 4 79 79 0 0 0-28 17z m191 53a118 118 0 0 1 47 14 198 198 0 0 1 46 36q22 22 47 51t50 61q25 33 48 64t41 57q18 25 30 42t14 21a58 58 0 0 1 13 34 60 60 0 0 1-9 32 66 66 0 0 1-23 23 60 60 0 0 1-32 8 60 60 0 0 1-34-12q-4-2-20-14t-43-30q-25-18-56-40t-63-48q-32-25-61-50t-52-47a219 219 0 0 1-36-46 113 113 0 0 1-14-47l62-17a56 56 0 0 0 4 31 119 119 0 0 0 26 33q18 19 42 39t50 41q26 21 52 41t50 38q24 17 43 30t29 21a6 6 0 0 0 5 2 6 6 0 0 0 4-4 6 6 0 0 0-1-6q-7-11-20-29t-30-43q-17-23-37-49t-42-52q-21-27-42-50t-38-42a132 132 0 0 0-32-24 69 69 0 0 0-29-8z m46 79l43 10a87 87 0 0 1-9 39 128 128 0 0 1-24 35 125 125 0 0 1-34 25 86 86 0 0 1-38 9l-14-44a72 72 0 0 0 27-7 89 89 0 0 0 23-17 95 95 0 0 0 17-23 76 76 0 0 0 9-27z" horiz-adv-x="1000" />

<glyph glyph-name="link" unicode="&#xe803;" d="M523 472l-50-50a125 125 0 0 0 36-9 86 86 0 0 0 27-18 108 108 0 0 0 29-48 95 95 0 0 0 0-51 106 106 0 0 0-28-48l-92-91a107 107 0 0 0-48-29 95 95 0 0 0-51 0 106 106 0 0 0-48 29 108 108 0 0 0-28 47 95 95 0 0 0-1 52 108 108 0 0 0 29 47l35 35a139 139 0 0 0-11 39 102 102 0 0 0 4 42l-74-74a170 170 0 0 1-46-75 153 153 0 0 1 0-83 172 172 0 0 1 46-76 171 171 0 0 1 76-47 154 154 0 0 1 83 0 171 171 0 0 1 76 46l96 96a171 171 0 0 1 46 76 154 154 0 0 1 0 83 171 171 0 0 1-46 76 103 103 0 0 1-26 19 132 132 0 0 1-34 12z m-54-235l50 50a124 124 0 0 0-36 9 89 89 0 0 0-27 18 109 109 0 0 0-29 48 94 94 0 0 0 0 51 107 107 0 0 0 28 47l92 92a107 107 0 0 0 47 29 95 95 0 0 0 52 0 109 109 0 0 0 47-29 109 109 0 0 0 29-48 95 95 0 0 0 0-51 107 107 0 0 0-28-48l-35-34a141 141 0 0 0 11-40 103 103 0 0 0-4-41l74 73a169 169 0 0 1 46 76 154 154 0 0 1 0 83 173 173 0 0 1-46 76 173 173 0 0 1-76 46 153 153 0 0 1-83 0 172 172 0 0 1-76-46l-96-95a171 171 0 0 1-46-76 154 154 0 0 1 0-83 170 170 0 0 1 46-76 107 107 0 0 1 26-19 128 128 0 0 1 34-12z" horiz-adv-x="1000" />

<glyph glyph-name="trash" unicode="&#xe804;" d="M365 45h270a77 77 0 0 1 54 19 73 73 0 0 1 22 52l20 418h32a25 25 0 0 1 19 8 25 25 0 0 1 7 18 24 24 0 0 1-7 18 25 25 0 0 1-19 8h-527a26 26 0 0 1-18-8 24 24 0 0 1-8-18 25 25 0 0 1 8-18 26 26 0 0 1 18-8h33l19-418a73 73 0 0 1 22-52 77 77 0 0 1 55-19z m6 51a27 27 0 0 0-21 8 31 31 0 0 0-8 21l-20 409h354l-19-409a30 30 0 0 0-8-21 28 28 0 0 0-21-8z m42 47a20 20 0 0 1 15 5 18 18 0 0 1 5 14l-9 304a18 18 0 0 1-5 14 21 21 0 0 1-15 5 20 20 0 0 1-15-5 17 17 0 0 1-5-14l9-304a19 19 0 0 1 6-14 21 21 0 0 1 14-5z m87 0a21 21 0 0 1 15 5 18 18 0 0 1 5 14v304a18 18 0 0 1-5 14 21 21 0 0 1-15 5 21 21 0 0 1-15-5 18 18 0 0 1-6-14v-304a18 18 0 0 1 6-14 21 21 0 0 1 15-5z m86 0a20 20 0 0 1 15 5 19 19 0 0 1 5 14l9 304a18 18 0 0 1-5 14 20 20 0 0 1-15 5 20 20 0 0 1-14-5 19 19 0 0 1-6-14l-9-304a18 18 0 0 1 5-14 21 21 0 0 1 15-5z m-220 423h54v60a23 23 0 0 0 8 18 28 28 0 0 0 19 7h104a28 28 0 0 0 20-7 23 23 0 0 0 7-18v-60h55v63a67 67 0 0 1-21 52 81 81 0 0 1-57 19h-111a81 81 0 0 1-57-19 67 67 0 0 1-21-52z" horiz-adv-x="1000" />

<glyph glyph-name="underline" unicode="&#xe805;" d="M494 167a228 228 0 0 1 103 21 160 160 0 0 1 67 61 172 172 0 0 1 24 91v273a36 36 0 0 1-11 27 38 38 0 0 1-27 10 36 36 0 0 1-27-10 36 36 0 0 1-10-27v-266a112 112 0 0 0-31-83 119 119 0 0 0-88-32 135 135 0 0 0-65 15 98 98 0 0 0-40 40 123 123 0 0 0-14 60v266a36 36 0 0 1-11 27 38 38 0 0 1-27 10 36 36 0 0 1-27-10 36 36 0 0 1-10-27v-273a171 171 0 0 1 24-91 160 160 0 0 1 67-61 227 227 0 0 1 103-21z m-171-103h341a23 23 0 0 1 17 7 21 21 0 0 1 7 16 22 22 0 0 1-7 16 23 23 0 0 1-17 6h-341a22 22 0 0 1-16-6 22 22 0 0 1-7-16 21 21 0 0 1 7-16 23 23 0 0 1 16-7z" horiz-adv-x="1000" />

<glyph glyph-name="arrow-down" unicode="&#xe806;" d="M375 256a31 31 0 0 0 22-9l103-103 103 103a31 31 0 0 0 44 0 31 31 0 0 0 0-44l-125-125a31 31 0 0 0-22-9 31 31 0 0 0-22 9l-125 125a31 31 0 0 0 0 44 31 31 0 0 0 22 9z m125 375a31 31 0 0 0 31-31l0-500a31 31 0 0 0-31-31 31 31 0 0 0-31 31l0 500a31 31 0 0 0 31 31z" horiz-adv-x="1000" />

<glyph glyph-name="arrow-up" unicode="&#xe807;" d="M625 444a31 31 0 0 0-22 9l-103 103-103-103a31 31 0 0 0-44 0 31 31 0 0 0 0 44l125 125a31 31 0 0 0 22 9 31 31 0 0 0 22-9l125-125a31 31 0 0 0 0-44 31 31 0 0 0-22-9z m-125-375a31 31 0 0 0-31 31v500a31 31 0 0 0 31 31 31 31 0 0 0 31-31v-500a31 31 0 0 0-31-31z" horiz-adv-x="1000" />

<glyph glyph-name="add" unicode="&#xe808;" d="M500 750a400 400 0 1 1 400-400 401 401 0 0 1-400 400m0 100a500 500 0 1 0-500-500 500 500 0 0 0 500 500z m0-750a50 50 0 0 0-50 50v400a50 50 0 0 0 50 50 50 50 0 0 0 50-50v-400a50 50 0 0 0-50-50z m-251 250a50 50 0 0 0 50 50l403 0a50 50 0 0 0 50-50 50 50 0 0 0-50-50l-403 0a50 50 0 0 0-50 50z" horiz-adv-x="1000" />

<glyph glyph-name="wave" unicode="&#xe809;" d="M274 260a26 26 0 0 1 19 8 26 26 0 0 1 8 19v126a26 26 0 0 1-8 19 26 26 0 0 1-19 8 25 25 0 0 1-18-8 27 27 0 0 1-8-19v-126a26 26 0 0 1 8-19 25 25 0 0 1 18-8z m93-102a26 26 0 0 1 19 8 26 26 0 0 1 8 19v330a26 26 0 0 1-8 19 26 26 0 0 1-19 8 25 25 0 0 1-19-8 26 26 0 0 1-7-19v-330a26 26 0 0 1 7-19 25 25 0 0 1 19-8z m93-94a26 26 0 0 1 19 7 26 26 0 0 1 8 19v519a26 26 0 0 1-8 19 26 26 0 0 1-19 8 25 25 0 0 1-19-8 26 26 0 0 1-7-19v-519a26 26 0 0 1 7-19 25 25 0 0 1 19-7z m93 131a26 26 0 0 1 19 8 26 26 0 0 1 8 19v256a26 26 0 0 1-8 19 26 26 0 0 1-19 7 25 25 0 0 1-19-7 26 26 0 0 1-7-19v-256a26 26 0 0 1 7-19 26 26 0 0 1 19-8z m93-75a26 26 0 0 1 19 8 26 26 0 0 1 8 19v406a26 26 0 0 1-8 19 26 26 0 0 1-19 7 25 25 0 0 1-19-7 26 26 0 0 1-8-19v-406a26 26 0 0 1 8-19 26 26 0 0 1 19-8z m93 123a26 26 0 0 1 19 8 26 26 0 0 1 8 19v160a26 26 0 0 1-8 19 26 26 0 0 1-19 8 25 25 0 0 1-19-8 26 26 0 0 1-7-19v-160a26 26 0 0 1 7-19 25 25 0 0 1 19-8z" horiz-adv-x="1000" />

<glyph glyph-name="delete" unicode="&#xe80a;" d="M500 788a438 438 0 1 1 438-438 438 438 0 0 1-438 438m0 62a500 500 0 1 0-500-500 500 500 0 0 0 500 500z m-187-750a63 63 0 0 0-45 18 63 63 0 0 0 0 89l375 375a63 63 0 0 0 89 0 63 63 0 0 0 0-89l-375-375a63 63 0 0 0-44-18z m375 0a63 63 0 0 0-45 18l-375 375a63 63 0 0 0 0 89 63 63 0 0 0 89 0l375-375a63 63 0 0 0-44-107z" horiz-adv-x="1000" />

<glyph glyph-name="check" unicode="&#xe80b;" d="M437 87a62 62 0 0 0-44 18l-187 187a63 63 0 0 0 0 88 63 63 0 0 0 89 0l142-142 268 268a63 63 0 0 0 89 0 63 63 0 0 0 0-88l-313-313a62 62 0 0 0-44-18z" horiz-adv-x="1000" />

<glyph glyph-name="minus" unicode="&#xe80c;" d="M500 788a438 438 0 1 1 438-438 438 438 0 0 1-438 438m0 62a500 500 0 1 0-500-500 500 500 0 0 0 500 500z m-309-456a63 63 0 0 0 44 19l530 0a63 63 0 0 0 63-63 63 63 0 0 0-63-62l-530 0a63 63 0 0 0-44 106z" horiz-adv-x="1000" />

<glyph glyph-name="arrow-left" unicode="&#xe80d;" d="M406 475a31 31 0 0 0-9-22l-103-103 103-103a31 31 0 0 0 0-44 31 31 0 0 0-44 0l-125 125a31 31 0 0 0-9 22 31 31 0 0 0 9 22l125 125a31 31 0 0 0 44 0 31 31 0 0 0 9-22z m375-125a31 31 0 0 0-31-31l-500 0a31 31 0 0 0-31 31 31 31 0 0 0 31 31l500 0a31 31 0 0 0 31-31z" horiz-adv-x="1000" />

<glyph glyph-name="arrow-right" unicode="&#xe80e;" d="M594 225a31 31 0 0 0 9 22l103 103-103 103a31 31 0 0 0 0 44 31 31 0 0 0 44 0l125-125a31 31 0 0 0 9-22 31 31 0 0 0-9-22l-125-125a31 31 0 0 0-44 0 31 31 0 0 0-9 22z m-375 125a31 31 0 0 0 31 31l500 0a31 31 0 0 0 31-31 31 31 0 0 0-31-31l-500 0a31 31 0 0 0-31 31z" horiz-adv-x="1000" />

<glyph glyph-name="finger-click" unicode="&#xe80f;" d="M600 126a179 179 0 0 1 77 51 153 153 0 0 1 35 80 209 209 0 0 1-13 100l-18 50a104 104 0 0 1-41 55 65 65 0 0 1-58 5 40 40 0 0 1-21 15 43 43 0 0 1-27-2 70 70 0 0 1-19-11 44 44 0 0 1-23 17 45 45 0 0 1-29-2 67 67 0 0 1-15-8l-28 76a50 50 0 0 1-26 30 48 48 0 0 1-38 2 48 48 0 0 1-29-26 51 51 0 0 1 0-40l70-191q0-2-1-3a2 2 0 0 0-3 1l-28 31a52 52 0 0 1-23 15 39 39 0 0 1-25-1 48 48 0 0 1-25-21 37 37 0 0 1-2-33 59 59 0 0 1 5-12 98 98 0 0 1 8-11l81-99a219 219 0 0 1 101-73 174 174 0 0 1 115 5z m-11 32a154 154 0 0 0-93-7 174 174 0 0 0-87 63l-82 99a30 30 0 0 0-6 9 15 15 0 0 0 0 12 16 16 0 0 0 10 9 18 18 0 0 0 20-7l57-59a27 27 0 0 1 13-8 22 22 0 0 1 13 1 16 16 0 0 1 10 9 20 20 0 0 1-1 15l-86 238a17 17 0 0 0 0 13 17 17 0 0 0 10 9 17 17 0 0 0 13-1 18 18 0 0 0 9-10l61-170a14 14 0 0 1 9-8 16 16 0 0 1 12 0 15 15 0 0 1 8 7 15 15 0 0 1 1 12l-23 61a35 35 0 0 0 6 5 34 34 0 0 0 7 3 18 18 0 0 0 16 0 21 21 0 0 0 10-13l19-53a14 14 0 0 1 8-9 16 16 0 0 1 12 0 15 15 0 0 1 8 8 14 14 0 0 1 1 12l-16 43a35 35 0 0 0 6 5 34 34 0 0 0 7 3 18 18 0 0 0 15 0 21 21 0 0 0 10-13l13-36a14 14 0 0 1 9-8 16 16 0 0 1 11 0 15 15 0 0 1 9 7 14 14 0 0 1 1 12l-10 26a28 28 0 0 0 29-6 93 93 0 0 0 24-40l15-41a192 192 0 0 0 13-85 118 118 0 0 0-27-65 146 146 0 0 0-64-42z" horiz-adv-x="1000" />

<glyph glyph-name="search" unicode="&#xe810;" d="M836-44l-210 209a306 306 0 1 0 59 59l210-209a42 42 0 1 0-59-60z m-618 453a223 223 0 1 1 223 223 223 223 0 0 1-223-223z" horiz-adv-x="1000" />

<glyph glyph-name="alarm" unicode="&#xe812;" d="M315 247a25 25 0 0 1 8-20 35 35 0 0 1 24-7h78a71 71 0 0 1 11-34 75 75 0 0 1 26-26 73 73 0 0 1 38-10 74 74 0 0 1 38 10 74 74 0 0 1 26 25 72 72 0 0 1 11 35h78a35 35 0 0 1 24 7 25 25 0 0 1 8 20 38 38 0 0 1-5 19 95 95 0 0 1-14 18q-8 9-16 17a43 43 0 0 0-11 17 125 125 0 0 0-6 23q-1 13-3 26a266 266 0 0 1-9 64 126 126 0 0 1-23 47 93 93 0 0 1-41 28 63 63 0 0 1-21 32 55 55 0 0 1-36 12 54 54 0 0 1-36-12 63 63 0 0 1-21-32 93 93 0 0 1-41-28 124 124 0 0 1-23-47 269 269 0 0 1-9-64q-2-13-3-26a125 125 0 0 0-6-23 43 43 0 0 0-11-17q-8-8-16-17a95 95 0 0 1-14-18 38 38 0 0 1-5-19z m45 8v2q3 3 7 7t9 9q5 5 10 11a57 57 0 0 1 8 13 106 106 0 0 1 7 18 181 181 0 0 1 4 22q1 12 2 25a221 221 0 0 0 9 62 80 80 0 0 0 20 34 68 68 0 0 0 28 16 11 11 0 0 1 5 3 9 9 0 0 1 2 6 39 39 0 0 0 9 23 25 25 0 0 0 20 9 25 25 0 0 0 20-9 39 39 0 0 0 8-23 8 8 0 0 1 3-6 11 11 0 0 1 5-3 68 68 0 0 0 28-16 80 80 0 0 0 20-34 219 219 0 0 0 9-62q1-13 2-25a206 206 0 0 1 4-22 101 101 0 0 1 7-18 58 58 0 0 1 8-13q5-6 10-11l9-9q4-4 6-7v-2z m101-35h78a43 43 0 0 0-12-29 37 37 0 0 0-27-11 37 37 0 0 0-27 11 42 42 0 0 0-12 29z" horiz-adv-x="1000" />

<glyph glyph-name="minimap" unicode="&#xe813;" d="M333 175a27 27 0 0 1 9 1 56 56 0 0 1 10 5l89 48 97-54a47 47 0 0 1 23-7 43 43 0 0 1 21 6l91 51a35 35 0 0 1 14 13 35 35 0 0 1 4 18v245a24 24 0 0 1-6 18 24 24 0 0 1-18 6 25 25 0 0 1-9-1 80 80 0 0 1-10-5l-92-51-96 58a42 42 0 0 1-22 6 41 41 0 0 1-21-6l-90-51a35 35 0 0 1-14-13 35 35 0 0 1-4-18v-245a24 24 0 0 1 6-18 24 24 0 0 1 18-6z m91 86l-75-41a8 8 0 0 0-3-1q-3 0-3 4v212a13 13 0 0 0 1 6 13 13 0 0 0 5 5l69 40q2 1 4 2l2 2z m35-1v225q1-1 3-1l3-2 76-46v-222q-2 1-3 2t-4 2z m117-49v228l75 41a7 7 0 0 0 3 1 3 3 0 0 0 2-1 4 4 0 0 0 1-3v-211a13 13 0 0 0-1-7 13 13 0 0 0-5-4l-67-39q-2-1-4-3t-4-2z" horiz-adv-x="1000" />

<glyph glyph-name="replace" unicode="&#xe814;" d="M278 32h79a25 25 0 0 0 19-7l56-57a98 98 0 0 1 68-34 100 100 0 0 1 67 35l57 56a25 25 0 0 0 18 8h80a99 99 0 0 1 72 23 99 99 0 0 1 24 72v79a25 25 0 0 0 7 19l56 56a97 97 0 0 1 35 68 100 100 0 0 1-35 68l-56 56a25 25 0 0 0-7 18v80a99 99 0 0 1-24 72 98 98 0 0 1-72 24h-79a26 26 0 0 0-19 7l-56 56a99 99 0 0 1-68 35 99 99 0 0 1-68-35l-56-56a25 25 0 0 0-19-7h-79a99 99 0 0 1-72-24 99 99 0 0 1-24-72v-80a26 26 0 0 0-7-18l-56-56a99 99 0 0 1-35-68 98 98 0 0 1 35-67l56-57a26 26 0 0 0 7-18v-80a99 99 0 0 1 24-72 99 99 0 0 1 72-24z m0 59a48 48 0 0 0-31 6 48 48 0 0 0-7 31v99a38 38 0 0 1-11 27l-69 69q-18 18-18 27t18 27l69 68a39 39 0 0 1 11 28v99a49 49 0 0 0 7 31 48 48 0 0 0 31 7h99a37 37 0 0 1 27 11l69 69q18 17 27 17t26-17l70-69a37 37 0 0 1 27-11h99a47 47 0 0 0 31-7 48 48 0 0 0 6-31v-99a38 38 0 0 1 12-28l69-69q18-17 18-26t-18-27l-69-69a37 37 0 0 1-12-27v-99a48 48 0 0 0-6-31 48 48 0 0 0-31-6h-99a36 36 0 0 1-27-12l-70-69q-17-18-26-18t-27 18l-68 69a37 37 0 0 1-28 12z" horiz-adv-x="1000" />

<glyph glyph-name="warning" unicode="&#xe815;" d="M500 635l299-518h-598l299 518m-368-478a80 80 0 0 1 69-119h598a80 80 0 0 1 69 119l-299 517a80 80 0 0 1-138 0z m328 278v-79a40 40 0 0 1 80 0v79a40 40 0 0 1-80 0z m0-198h80v-80h-80z" horiz-adv-x="1000" />

<glyph glyph-name="pause" unicode="&#xe816;" d="M563 225v250a63 63 0 0 0 62 63 63 63 0 0 0 63-63v-250a63 63 0 0 0-63-62 63 63 0 0 0-62 62z m-219 0v250a63 63 0 0 0 62 63 63 63 0 0 0 63-63v-250a63 63 0 0 0-63-62 63 63 0 0 0-62 62z" horiz-adv-x="1000" />

<glyph glyph-name="camera" unicode="&#xe817;" d="M591 613l64-70h142v-420h-560v420h141l64 70h149m31 70h-210l-64-70h-111a70 70 0 0 1-70-70v-420a70 70 0 0 1 70-70h560a70 70 0 0 1 70 70v420a70 70 0 0 1-70 70h-111z m-105-245a105 105 0 1 0-105-105 105 105 0 0 0 105 105m0 70a175 175 0 1 1 175-175 175 175 0 0 1-175 175z" horiz-adv-x="1000" />

<glyph glyph-name="trophy" unicode="&#xe818;" d="M792 642h-84v83h-416v-83h-84a84 84 0 0 1-83-84v-41a208 208 0 0 1 183-206 209 209 0 0 1 150-123v-130h-166v-83h416v83h-166v130a209 209 0 0 1 150 123 208 208 0 0 1 183 206v41a84 84 0 0 1-83 84z m-584-125v41h84v-159a125 125 0 0 0-84 118z m584 0a125 125 0 0 0-84-118v159h84z" horiz-adv-x="1000" />

<glyph glyph-name="menu" unicode="&#xe81b;" d="M500 585a235 235 0 1 1 235-235 235 235 0 0 1-235 235m0 40a275 275 0 1 0-275-275 275 275 0 0 0 275 275z m0-241a34 34 0 1 0-34-34 34 34 0 0 0 34 34z m99 0a34 34 0 1 0-34-34 34 34 0 0 0 34 34z m-198 0a34 34 0 1 0-34-34 34 34 0 0 0 34 34z" horiz-adv-x="1000" />

<glyph glyph-name="human" unicode="&#xe81c;" d="M253-33h463q93 0 93 61a164 164 0 0 1-23 79 276 276 0 0 1-64 76 344 344 0 0 1-103 59 376 376 0 0 1-134 23 378 378 0 0 1-135-23 344 344 0 0 1-102-59 276 276 0 0 1-65-77 164 164 0 0 1-22-78q0-61 92-61z m-14 60a17 17 0 0 0-10 2 9 9 0 0 0-3 8 103 103 0 0 0 17 50 212 212 0 0 0 50 56 283 283 0 0 0 81 44 319 319 0 0 0 111 18 318 318 0 0 0 110-18 283 283 0 0 0 81-44 215 215 0 0 0 51-56 102 102 0 0 0 17-50 9 9 0 0 0-3-8 18 18 0 0 0-10-2z m246 283a145 145 0 0 1 81 23 174 174 0 0 1 58 64 179 179 0 0 1 22 87 172 172 0 0 1-22 86 168 168 0 0 1-58 61 150 150 0 0 1-81 23 148 148 0 0 1-81-23 171 171 0 0 1-58-61 169 169 0 0 1-21-87 180 180 0 0 1 21-87 171 171 0 0 1 58-63 146 146 0 0 1 81-23z m0 60a84 84 0 0 0-48 15 108 108 0 0 0-36 41 125 125 0 0 0-13 58 120 120 0 0 0 13 56 104 104 0 0 0 35 39 87 87 0 0 0 49 15 87 87 0 0 0 49-14 104 104 0 0 0 35-40 119 119 0 0 0 14-56 126 126 0 0 0-14-58 110 110 0 0 0-36-41 83 83 0 0 0-48-15z" horiz-adv-x="1000" />

<glyph glyph-name="eye-close" unicode="&#xe81d;" d="M500 577a407 407 0 0 0 368-229 402 402 0 0 0-101-130l59-59a492 492 0 0 1 132 189 493 493 0 0 1-610 289l69-69a421 421 0 0 0 83 9z m-45-47l87-87a104 104 0 0 0 53-53l86-86a195 195 0 0 1 6 44 187 187 0 0 1-187 187 177 177 0 0 1-45-5z m-371 136l111-112a489 489 0 0 1-153-206 493 493 0 0 1 458-313 489 489 0 0 1 180 35l143-143 58 59-738 739z m312-313l109-108a21 21 0 0 0-5-1 104 104 0 0 0-104 104c0 2 0 3 0 5z m-141 142l73-73a192 192 0 0 1-15-74 188 188 0 0 1 261-173l41-40a435 435 0 0 0-115-16 407 407 0 0 0-367 229 413 413 0 0 0 122 147z" horiz-adv-x="1000" />

<glyph glyph-name="eye" unicode="&#xe81e;" d="M500 558a407 407 0 0 0 368-229 409 409 0 0 0-735 0 407 407 0 0 0 367 229m0 84a493 493 0 0 1-458-313 492 492 0 0 1 916 0 493 493 0 0 1-458 313z m0-209a104 104 0 1 0-104-104 104 104 0 0 0 104 104m0 84a188 188 0 1 1 188-188 188 188 0 0 1-188 188z" horiz-adv-x="1000" />

<glyph glyph-name="timer" unicode="&#xe81f;" d="M625 808h-250v-83h250z m-167-541h84v250h-84z m335 275l59 59a460 460 0 0 1-59 59l-59-59a375 375 0 1 1 59-59z m-293-525a292 292 0 1 0 292 291 292 292 0 0 0-292-291z" horiz-adv-x="1000" />

<glyph glyph-name="profile-plus" unicode="&#xe820;" d="M625 350a167 167 0 1 1-167 167 167 167 0 0 1 167-167z m0 250a83 83 0 1 0-83-83 84 84 0 0 0 83 83z m0-333c-111 0-333-56-333-167v-83h666v83c0 111-222 167-333 167z m-250-167c9 30 138 83 250 83s242-53 250-83z m-125 125v125h125v83h-125v125h-83v-125h-125v-83h125v-125z" horiz-adv-x="1000" />

<glyph glyph-name="profile-delete" unicode="&#xe821;" d="M42 17v83c0 111 222 167 333 167s333-56 333-167v-83z m83 83h500c-9 30-138 83-250 83s-242-53-250-83z m671 241l-89-89-59 59 89 89-89 88 59 59 89-88 88 88 59-59-88-88 88-89-59-59z m-588 176a167 167 0 0 0 167 166 167 167 0 0 0 167-166 167 167 0 0 0-167-167 167 167 0 0 0-167 167z m84 0a84 84 0 0 1 83-84 84 84 0 0 1 83 84 84 84 0 0 1-83 83 84 84 0 0 1-83-83z" horiz-adv-x="1000" />

<glyph glyph-name="password-lock" unicode="&#xe822;" d="M750 517h-42v83a208 208 0 0 1-416 0v-83h-42a84 84 0 0 1-83-84v-416a84 84 0 0 1 83-84h500a84 84 0 0 1 83 84v416a84 84 0 0 1-83 84z m-375 83a125 125 0 0 0 250 0v-83h-250z m375-583h-500v416h500z m-250 125a83 83 0 1 1-83 83 84 84 0 0 1 83-83z" horiz-adv-x="1000" />

<glyph glyph-name="logout" unicode="&#xe823;" d="M708 517l-58-59 65-66h-340v-84h340l-65-65 58-60 167 167z m-500 125h292v83h-292a84 84 0 0 1-83-83v-584a84 84 0 0 1 83-83h292v83h-292z" horiz-adv-x="1000" />

<glyph glyph-name="image-add" unicode="&#xe824;" d="M750 17h-583v583h375v83h-375a84 84 0 0 1-84-83v-583a84 84 0 0 1 84-84h583a84 84 0 0 1 83 84v375h-83z m-325 132l-81 98-115-147h459l-148 196z m408 534v125h-83v-125h-125c0 0 0-83 0-83h125v-125c0 0 83 0 83 0v125h125v83z" horiz-adv-x="1000" />

<glyph glyph-name="image-trash" unicode="&#xe825;" d="M667 475v-417h-334v417h334m-63 250h-208l-42-42h-146v-83h584v83h-146z m146-167h-500v-500a84 84 0 0 1 83-83h334a84 84 0 0 1 83 83z" horiz-adv-x="1000" />

<glyph glyph-name="profile" unicode="&#xe826;" d="M500 767a417 417 0 1 1 417-417 417 417 0 0 1-417 417z m-205-679c18 38 127 75 205 75s188-37 205-75a330 330 0 0 0-410 0z m470 61c-60 72-204 97-265 97s-205-25-265-97a333 333 0 1 0 530 0z m-265 451a146 146 0 1 1 146-146 146 146 0 0 1-146 146z m0-208a63 63 0 1 0 63 62 63 63 0 0 0-63-62z" horiz-adv-x="1000" />

<glyph glyph-name="star" unicode="&#xe827;" d="M274-66a71 71 0 0 0-70 82l38 216-158 149a71 71 0 0 0 0 100 77 77 0 0 0 39 20l219 32 95 193a71 71 0 0 0 41 36 72 72 0 0 0 54-4 73 73 0 0 0 32-31l0-1 97-196 215-29a71 71 0 0 0 47-27 70 70 0 0 0-8-94l-156-151 38-213a71 71 0 0 0-59-81 75 75 0 0 0-44 7l-195 102-192-102a72 72 0 0 0-33-8m-131 494l152-146a71 71 0 0 0 21-63l-37-207 189 98a70 70 0 0 0 66 0l187-98-36 207a69 69 0 0 0 21 63l152 147-210 30a71 71 0 0 0-54 39l-94 188-94-189a72 72 0 0 0-53-38z m615-200h0m1 5v0m105 202v0z" horiz-adv-x="1000" />

<glyph glyph-name="clock" unicode="&#xe828;" d="M500-88a438 438 0 1 0 438 438 438 438 0 0 0-438-438m0 801a363 363 0 1 1 363-363 363 363 0 0 1-363 363m148-528a37 37 0 0 0-19 5l-163 98a38 38 0 0 0-18 32v210a38 38 0 0 0 75 0v-189l145-86a38 38 0 0 0-19-70" horiz-adv-x="1000" />

<glyph glyph-name="ab" unicode="&#xe829;" d="M510 368v-182a48 48 0 0 0-48-48h-1a48 48 0 0 0-48 48v53h-192v-53a48 48 0 1 0-96 0v182a180 180 0 0 0 192 197 180 180 0 0 0 193-197m-97-51v60c0 71-39 106-96 106s-96-35-96-106v-60z m485-84c0-59-50-95-144-95h-136a50 50 0 0 0-50 50v245a50 50 0 0 0 50 50h126c91 0 136-37 136-90a81 81 0 0 0-43-75 86 86 0 0 0 61-85m-237 184v-73h71c35 0 53 13 53 36s-18 37-53 37z m141-174c0 26-19 38-55 38h-86v-76h86c36 0 55 13 55 38" horiz-adv-x="1000" />

<glyph glyph-name="down-open" unicode="&#xe82a;" d="M939 399l-414-413q-10-11-25-11t-25 11l-414 413q-11 11-11 26t11 25l93 92q10 11 25 11t25-11l296-296 296 296q11 11 25 11t26-11l92-92q11-11 11-25t-11-26z" horiz-adv-x="1000" />

<glyph glyph-name="circle-pencil" unicode="&#xe82b;" d="M493-77a406 406 0 0 1 163 33 427 427 0 0 1 134 91 430 430 0 0 1 91 134 404 404 0 0 1 33 163 404 404 0 0 1-33 162 427 427 0 0 1-91 134 431 431 0 0 1-134 91 405 405 0 0 1-163 33 403 403 0 0 1-162-33 430 430 0 0 1-134-91 429 429 0 0 1-91-134 404 404 0 0 1-33-162 404 404 0 0 1 33-163 431 431 0 0 1 91-134 424 424 0 0 1 134-91 406 406 0 0 1 162-33z m0 83a332 332 0 0 0-131 27 335 335 0 0 0-107 72 340 340 0 0 0-73 107 331 331 0 0 0-26 132 332 332 0 0 0 26 131 341 341 0 0 0 72 108 333 333 0 0 0 108 72 332 332 0 0 0 131 26 331 331 0 0 0 131-26 341 341 0 0 0 108-72 336 336 0 0 0 73-108 332 332 0 0 0 26-131 331 331 0 0 0-26-132 340 340 0 0 0-73-107 335 335 0 0 0-107-72 333 333 0 0 0-132-26z m-126 163l261 260-52 52-260-260-23-54a14 14 0 0 1 3-16 13 13 0 0 1 15-3z m285 284l30 30a36 36 0 0 1 11 22 27 27 0 0 1-10 22l-10 9a28 28 0 0 1-21 9 33 33 0 0 1-22-11l-29-29z" horiz-adv-x="1000" />

<glyph glyph-name="qr" unicode="&#xe82c;" d="M191 375h173a89 89 0 0 1 66 22 92 92 0 0 1 22 67v170a92 92 0 0 1-22 67 89 89 0 0 1-66 22h-173a90 90 0 0 1-65-22 92 92 0 0 1-22-67v-170a92 92 0 0 1 22-67 89 89 0 0 1 65-22z m-1 64a22 22 0 0 0-16 6 24 24 0 0 0-6 17v174a23 23 0 0 0 6 17 22 22 0 0 0 16 6h176a23 23 0 0 0 16-6 23 23 0 0 0 6-17v-174a23 23 0 0 0-6-17 22 22 0 0 0-16-6z m51 65h73q9 0 9 10v71q0 9-9 9h-73q-8 0-8-9v-71q0-10 8-10z m362-129h173a89 89 0 0 1 66 22 92 92 0 0 1 22 67v170a92 92 0 0 1-22 67 90 90 0 0 1-66 22h-173a90 90 0 0 1-66-22 92 92 0 0 1-22-67v-170a92 92 0 0 1 22-67 89 89 0 0 1 66-22z m-1 64a22 22 0 0 0-17 6 24 24 0 0 0-5 17v174a23 23 0 0 0 5 17 22 22 0 0 0 17 6h175a22 22 0 0 0 17-6 24 24 0 0 0 5-17v-174a25 25 0 0 0-5-17 21 21 0 0 0-17-6z m53 65h73q9 0 9 10v71q0 9-9 9h-73q-8 0-8-9v-71q0-10 8-10z m-464-541h173a89 89 0 0 1 66 22 92 92 0 0 1 22 67v171a92 92 0 0 1-22 67 89 89 0 0 1-66 22h-173a89 89 0 0 1-65-22 92 92 0 0 1-22-67v-171a92 92 0 0 1 22-67 89 89 0 0 1 65-22z m-1 65a22 22 0 0 0-16 5 23 23 0 0 0-6 17v174a24 24 0 0 0 6 18 22 22 0 0 0 16 5h176a23 23 0 0 0 16-5 23 23 0 0 0 6-18v-174a23 23 0 0 0-6-17 22 22 0 0 0-17-5z m51 65h73q9 0 9 10v70q0 9-9 9h-73q-8 0-8-9v-70q0-10 8-10z m303 110h73q8 0 8 10v70q0 10-8 10h-73q-9 0-9-10v-70q0-10 9-10z m218 0h72q9 0 9 10v70q0 10-9 10h-72q-9 0-9-10v-70q0-10 9-10z m-108-109h72q9 0 9 10v70q0 9-9 9h-72q-9 0-9-9v-70q0-10 9-10z m-110-109h73q8 0 8 10v70q0 10-8 10h-73q-9 0-9-10v-70q0-10 9-10z m218 0h72q9 0 9 10v70q0 10-9 10h-72q-9 0-9-10v-70q0-10 9-10z" horiz-adv-x="1000" />

<glyph glyph-name="player-group" unicode="&#xe82d;" d="M666 309a588 588 0 0 0 235-50 166 166 0 0 0 98-152v-90h-666v89a165 165 0 0 0 98 152 579 579 0 0 0 235 51z m-444-14a111 111 0 1 1-111 111 111 111 0 0 1 111-111z m63-61a387 387 0 0 1-63 5 385 385 0 0 1-154-32 112 112 0 0 1-68-103v-87h250v89a250 250 0 0 0 35 128z m825 61a111 111 0 1 1-111 111 111 111 0 0 1 111-111z m222-191a112 112 0 0 1-67 103 377 377 0 0 1-218 27 250 250 0 0 0 35-128v-89h250z m-666 580a167 167 0 1 0-167-167 166 166 0 0 0 167 167z" horiz-adv-x="1333" />

<glyph glyph-name="player" unicode="&#xe82e;" d="M500 350a167 167 0 1 1-167 167 167 167 0 0 1 167-167z m0-83c-111 0-333-56-333-167v-83h666v83c0 111-222 167-333 167z" horiz-adv-x="1000" />

<glyph glyph-name="circle-check" unicode="&#xe82f;" d="M500 767a417 417 0 1 1 417-417 417 417 0 0 1-417 417z m-83-625l-209 208 59 59 150-149 316 316 59-59z" horiz-adv-x="1000" />

<glyph glyph-name="eye-fill" unicode="&#xe830;" d="M500 683a493 493 0 0 1-458-312 492 492 0 0 1 916 0 493 493 0 0 1-458 312z m0-520a208 208 0 1 0 208 208 208 208 0 0 0-208-208z m0 333a125 125 0 1 1 125-125 125 125 0 0 1-125 125z" horiz-adv-x="1000" />

<glyph glyph-name="circle-question-mark" unicode="&#xe831;" d="M502 11a331 331 0 0 1 132 27 348 348 0 0 1 110 74 351 351 0 0 1 74 109 330 330 0 0 1 27 133 330 330 0 0 1-27 132 349 349 0 0 1-74 110 352 352 0 0 1-110 74 331 331 0 0 1-133 27 329 329 0 0 1-132-27 351 351 0 0 1-109-74 350 350 0 0 1-74-110 330 330 0 0 1-27-132 330 330 0 0 1 27-133 352 352 0 0 1 74-109 346 346 0 0 1 109-74 331 331 0 0 1 133-27z m0 68a271 271 0 0 0-107 21 273 273 0 0 0-88 59 277 277 0 0 0-59 88 270 270 0 0 0-21 107 271 271 0 0 0 21 107 278 278 0 0 0 59 88 271 271 0 0 0 87 59 271 271 0 0 0 108 21 270 270 0 0 0 107-21 278 278 0 0 0 87-59 274 274 0 0 0 60-88 271 271 0 0 0 21-107 270 270 0 0 0-21-107 277 277 0 0 0-59-88 273 273 0 0 0-88-59 271 271 0 0 0-107-21z m-7 209a32 32 0 0 1 21 7 24 24 0 0 1 9 17 7 7 0 0 1 0 2v2a36 36 0 0 0 10 22 123 123 0 0 0 25 21 198 198 0 0 1 39 33 68 68 0 0 1 15 46 74 74 0 0 1-15 47 95 95 0 0 1-40 29 139 139 0 0 1-54 11 134 134 0 0 1-70-17 76 76 0 0 1-36-40 52 52 0 0 1-2-9 45 45 0 0 1-1-9 24 24 0 0 1 8-19 27 27 0 0 1 18-7 31 31 0 0 1 16 4 35 35 0 0 1 11 10l5 7a66 66 0 0 0 13 15 54 54 0 0 0 15 9 50 50 0 0 0 19 4 48 48 0 0 0 33-11 35 35 0 0 0 12-28 35 35 0 0 0-10-26 244 244 0 0 0-32-25 135 135 0 0 1-30-26 58 58 0 0 1-11-37v-4q0-28 31-28z m-1-102a39 39 0 0 1 27 10 34 34 0 0 1 12 26 34 34 0 0 1-12 27 39 39 0 0 1-27 10 39 39 0 0 1-28-10 34 34 0 0 1-11-27 34 34 0 0 1 12-26 39 39 0 0 1 27-10z" horiz-adv-x="1000" />

<glyph glyph-name="play" unicode="&#xe833;" d="M396 140a60 60 0 0 0-60 59v302a60 60 0 0 0 90 51l255-151a60 60 0 0 0 0-102l-255-151a60 60 0 0 0-30-8m0 374a14 14 0 0 1-7-2 13 13 0 0 1-6-11v-302a13 13 0 0 1 19-11l255 151a13 13 0 0 1 0 22l-255 151a13 13 0 0 1-6 2m273-195h0z" horiz-adv-x="1000" />

<glyph glyph-name="volume-mute" unicode="&#xe834;" d="M279 127a24 24 0 0 0-16 40l62 62h-35a68 68 0 0 0-68 67 632 632 0 0 0 0 133 68 68 0 0 0 67 63h43l84 68a77 77 0 0 0 41 18 27 27 0 0 0 4 0 65 65 0 0 0 62-51 358 358 0 0 0 6-46q1-23 2-46l158 158a23 23 0 0 0 33-33l-342-342c0 0-1-1-1-1l-83-83a23 23 0 0 0-17-7m11 319a22 22 0 0 1-21-21 604 604 0 0 1 0-126 22 22 0 0 1 21-23h51a23 23 0 0 0 15-6l6-4 123 124c0 30-1 59-2 88a314 314 0 0 1-6 39 18 18 0 0 1-16 14 31 31 0 0 1-15-7l-90-73a23 23 0 0 0-15-5z m171-303a73 73 0 0 0-44 17l-15 12a23 23 0 1 0 30 36l15-12a25 25 0 0 1 15-6 18 18 0 0 1 15 14 273 273 0 0 1 5 40c1 12 2 25 2 37a24 24 0 0 0 24 23 24 24 0 0 0 23-24c-1-13-1-26-2-39a314 314 0 0 0-6-47 65 65 0 0 0-62-51" horiz-adv-x="1000" />

<glyph glyph-name="volume-full" unicode="&#xe835;" d="M461 143a73 73 0 0 0-44 17l-84 69h-43a68 68 0 0 0-68 67 628 628 0 0 0 0 133 68 68 0 0 0 67 63h44l83 68a77 77 0 0 0 41 18 26 26 0 0 0 4 0 65 65 0 0 0 62-51 358 358 0 0 0 6-46 2309 2309 0 0 0 0-240v-1a312 312 0 0 0-6-46 65 65 0 0 0-62-51m-171 303a22 22 0 0 1-21-21 600 600 0 0 1 0-126 22 22 0 0 1 21-23h51a23 23 0 0 0 15-6l91-74a25 25 0 0 1 15-6 18 18 0 0 1 15 14 266 266 0 0 1 5 39c4 79-3 261-5 274a18 18 0 0 1-16 14 31 31 0 0 1-16-7l-89-73a23 23 0 0 0-15-5z m216-204h0z m179-96a23 23 0 0 0-19 36 319 319 0 0 1 53 183 319 319 0 0 1-53 183 23 23 0 0 0 39 26 366 366 0 0 0 61-209 365 365 0 0 0-61-209 23 23 0 0 0-20-10m-83 74a23 23 0 0 0-19 37 189 189 0 0 1 31 108 190 190 0 0 1-31 109 23 23 0 0 0 39 25 236 236 0 0 0 39-134 235 235 0 0 0-39-134 23 23 0 0 0-20-11" horiz-adv-x="1000" />

<glyph glyph-name="locker" unicode="&#xe836;" d="M750 475h-42v83a208 208 0 0 1-416 0v-83h-42a84 84 0 0 1-83-83v-417a84 84 0 0 1 83-83h500a84 84 0 0 1 83 83v417a84 84 0 0 1-83 83z m-250-375a83 83 0 1 0 83 83 84 84 0 0 0-83-83z m129 375h-258v83a129 129 0 0 0 258 0z" horiz-adv-x="1000" />

<glyph glyph-name="xmark" unicode="&#xe83e;" d="M212 75a41 41 0 0 1 19-10 42 42 0 0 1 21 0 39 39 0 0 1 18 10l224 224 223-224a39 39 0 0 1 19-10 44 44 0 0 1 21 0 38 38 0 0 1 18 10 38 38 0 0 1 11 19 44 44 0 0 1 0 20 38 38 0 0 1-10 19l-224 224 224 223a39 39 0 0 1 10 19 42 42 0 0 1 0 21 40 40 0 0 1-11 18 39 39 0 0 1-18 11 44 44 0 0 1-21 0 37 37 0 0 1-18-11l-224-224-224 224a37 37 0 0 1-19 11 46 46 0 0 1-21 0 37 37 0 0 1-18-11 38 38 0 0 1-10-18 45 45 0 0 1 0-21 37 37 0 0 1 10-19l224-223-224-224a39 39 0 0 1-10-18 43 43 0 0 1 0-22 37 37 0 0 1 10-18z" horiz-adv-x="1000" />

<glyph glyph-name="chevron-up" unicode="&#xe849;" d="M513 545a42 42 0 0 0 30-12l299-299a42 42 0 0 0-59-59l-270 270-269-270a42 42 0 0 0-59 59l299 299a42 42 0 0 0 29 12z" horiz-adv-x="1000" />

<glyph glyph-name="chevron-down" unicode="&#xe84a;" d="M487 155a42 42 0 0 0-30 12l-299 299a42 42 0 0 0 59 59l270-269 270 269a42 42 0 0 0 58-59l-299-299a42 42 0 0 0-29-12z" horiz-adv-x="1000" />

<glyph glyph-name="chevron_right" unicode="&#xe864;" d="M346 546a42 42 0 0 1 0-59l161-161-161-162a42 42 0 1 1 58-59l192 192a42 42 0 0 1 0 58l-192 192a42 42 0 0 1-58-1z" horiz-adv-x="1000" />

<glyph glyph-name="airplane" unicode="&#xe873;" d="M412 45l387 517a34 34 0 0 1-31 54l-642-76a34 34 0 0 1-25-50l78-136a34 34 0 0 1 42-15l449 185-385-296a35 35 0 0 1-8-44l79-136a34 34 0 0 1 56-3z" horiz-adv-x="1000" />

<glyph glyph-name="hint" unicode="&#xe874;" d="M578 379a213 213 0 1 1-123-71l78-134-62-36a71 71 0 0 1 71-123l62 36a71 71 0 1 1 123 71z m-223 103a71 71 0 1 0 97-26 71 71 0 0 0-97 26z" horiz-adv-x="1000" />

<glyph glyph-name="text" unicode="&#xe87e;" d="M742 391v-289h-122v127h-242v-128h-121v290c0 161 97 249 243 249s242-88 242-249m-122-64v76c0 90-49 133-121 133-74 0-121-43-121-133v-76z" horiz-adv-x="1000" />

<glyph glyph-name="photo" unicode="&#xe87f;" d="M654-10h-308c-123 0-206 87-206 215v290c0 129 83 215 206 215h308c123 0 206-86 206-215v-290c0-128-83-215-206-215m-308 658c-88 0-144-60-144-153v-290c0-93 56-153 144-153h308c88 0 144 60 144 153v290c0 93-56 153-144 153z m-62-478l54 57a19 19 0 0 0 28 0l32-32a82 82 0 0 1 115-1 78 78 0 0 1 6 7l80 96a30 30 0 0 0 44 2l74-76a31 31 0 0 1 44 43l-74 76a93 93 0 0 1-8 7 91 91 0 0 1-128-13l-81-98a20 20 0 0 0-28 0l-31 32c-1 0-3 3-3 3a81 81 0 0 1-114-3l-55-57a31 31 0 1 1 45-43m94 188a93 93 0 1 0 93 93 94 94 0 0 0-93-93m0 125a32 32 0 1 1 32-32 32 32 0 0 1-32 32" horiz-adv-x="1000" />

<glyph glyph-name="film" unicode="&#xe880;" d="M632 38h-264a176 176 0 0 0-180 187v250a176 176 0 0 0 180 188h264a176 176 0 0 0 181-188v-250a176 176 0 0 0-181-187m-264 564c-73 0-120-50-120-127v-250c0-78 46-127 120-127h264c74 0 120 49 120 127v250c0 78-46 127-120 127z m68-426a52 52 0 0 0-46 27 39 39 0 0 0-2 5 256 256 0 0 0-8 34 739 739 0 0 0-6 108 698 698 0 0 0 7 111 264 264 0 0 0 8 31 52 52 0 0 0 49 32 32 32 0 0 0 5-1 178 178 0 0 0 30-9 663 663 0 0 0 172-116l5-4c4-5 9-11 10-12a52 52 0 0 0 2-62l0-1c-2-1-7-7-11-12l-4-3a670 670 0 0 0-169-116 202 202 0 0 0-34-12 29 29 0 0 0-6-1h-2m7 286c-1-4-2-8-3-10a648 648 0 0 1-6-101 694 694 0 0 1 6-99c1-4 2-8 3-12 3 1 7 2 11 4a607 607 0 0 1 150 103l3 2c0 1 1 1 1 2-1 1-2 1-2 2l-3 4a599 599 0 0 1-154 103c-2 0-4 1-6 2m194-124h0z" horiz-adv-x="1000" />

<glyph glyph-name="audio" unicode="&#xe881;" d="M457 72a100 100 0 0 0-60 23l-116 94h-58a93 93 0 0 0-93 93 863 863 0 0 0 0 181 94 94 0 0 0 92 88h59l114 93a106 106 0 0 0 58 24 43 43 0 0 0 4 0 90 90 0 0 0 85-70 494 494 0 0 0 9-63 3180 3180 0 0 0 0-329v-1a426 426 0 0 0-9-63 90 90 0 0 0-85-70m-234 415a30 30 0 0 1-29-29 822 822 0 0 1 0-172 30 30 0 0 1 29-32h70a32 32 0 0 0 20-8l125-101a34 34 0 0 1 20-9 25 25 0 0 1 21 20 370 370 0 0 1 8 53 3082 3082 0 0 1 0 322 415 415 0 0 1-8 54 25 25 0 0 1-22 19 43 43 0 0 1-21-10l-123-100a32 32 0 0 0-20-7z m296-280h0z m246-131a32 32 0 0 0-18 5 32 32 0 0 0-9 44 438 438 0 0 1 73 250 438 438 0 0 1-73 252 32 32 0 0 0 54 35 501 501 0 0 0 83-287 500 500 0 0 0-83-285 32 32 0 0 0-27-14m-114 101a32 32 0 0 0-27 50 259 259 0 0 1 43 149 260 260 0 0 1-43 149 32 32 0 1 0 54 35 323 323 0 0 0 53-184 322 322 0 0 0-53-184 32 32 0 0 0-27-15" horiz-adv-x="1000" />

<glyph glyph-name="answer_direction" unicode="&#xe882;" d="M863 334l-117-116a22 22 0 0 0-31 31l79 79h-139a22 22 0 1 0 0 45h138l-80 79a22 22 0 1 0 32 32l114-115a23 23 0 0 0 4-35m-214-214l-117-117a23 23 0 0 0-35 4l-115 114a22 22 0 0 0 31 32l80-80v138a22 22 0 0 0 44 0v-139l80 79a22 22 0 0 0 31-31m1 428a22 22 0 0 0-31 0l-80 80v-138a22 22 0 0 0-44 0v139l-80-80a22 22 0 0 0-31 32l117 116 0 1a22 22 0 0 0 34-4l115-115a22 22 0 0 0 0-31m-331-331a22 22 0 0 0-31 0l-115 115a22 22 0 0 0-10 18 29 29 0 0 0 6 16l0 0 117 117a22 22 0 0 0 31-31l-79-79h139a22 22 0 1 0 0-45h-138l80-80a22 22 0 0 0 0-31" horiz-adv-x="1000" />

<glyph glyph-name="answer_ox" unicode="&#xe883;" d="M776 197a31 31 0 0 0-22 9l-99 100-100-100a31 31 0 0 0-44 45l99 99-99 100a31 31 0 0 0 44 44l100-100 99 100a31 31 0 0 0 45-44l-100-100 100-99a31 31 0 0 0-23-54m-432 1a152 152 0 1 0 152 152 152 152 0 0 0-152-152m0 241a89 89 0 1 1 90-89 89 89 0 0 1-90 89" horiz-adv-x="1000" />

<glyph glyph-name="answer_number" unicode="&#xe884;" d="M325 480v-268h-76v209h-50v59z m247-208v-60h-209v47l101 94c21 20 24 32 24 44 0 17-11 27-34 27a55 55 0 0 1-48-26l-56 31a123 123 0 0 0 111 56c61 0 104-31 104-81a107 107 0 0 0-46-85l-50-47z m229 24c0-46-36-90-117-90a206 206 0 0 0-104 27l28 57a136 136 0 0 1 74-22c26 0 43 10 43 28 0 16-12 26-41 26h-32v48l48 51h-106v59h194v-47l-56-60a77 77 0 0 0 69-77" horiz-adv-x="1000" />

<glyph glyph-name="answer_short" unicode="&#xe885;" d="M419 167h-177a42 42 0 0 0 0 83h177a42 42 0 0 0 0-83m121 36l59 1a48 48 0 0 1 37 18l153 196c1 1 2 2 3 4a57 57 0 0 1-17 77l-24 19c-1 1-2 1-3 2a57 57 0 0 1-80-8l-1 0-152-195a48 48 0 0 1-9-40l13-58a21 21 0 0 1 21-16z m174 187l-111-142a6 6 0 0 0-5-2l-42-1-9 41a6 6 0 0 0 1 6l111 142z m-14 96a15 15 0 0 0 22 1c1 0 1-1 2-1l26-20c0-1 1-1 1-2a15 15 0 0 0 7-9 15 15 0 0 0-2-12l-16-20-55 43z" horiz-adv-x="1000" />

<glyph glyph-name="answer_checkbox" unicode="&#xe886;" d="M812 484h-296a50 50 0 0 0 0 99h296a50 50 0 0 0 0-99m-378-394v156a73 73 0 0 1-72 74h-149a73 73 0 0 1-72-74v-156a73 73 0 0 1 72-75h149a73 73 0 0 1 72 75m-72 181a24 24 0 0 0 24-25v-156a24 24 0 0 0-24-25h-149a25 25 0 0 0-24 25v156a24 24 0 0 0 24 25z m498-103h0a49 49 0 0 1-48 50h-296a50 50 0 0 1 0-100h296a49 49 0 0 1 48 50m-427 444v-156a72 72 0 0 0-71-74h-149a72 72 0 0 0-71 74v156a72 72 0 0 0 71 73h149a72 72 0 0 0 71-73m-42-2a17 17 0 0 1-26 0l-108-113-39 41a18 18 0 0 1-25 0 19 19 0 0 1 0-27l52-54a18 18 0 0 1 25 0l121 126a19 19 0 0 1 0 27" horiz-adv-x="1000" />

<glyph glyph-name="answer_radio" unicode="&#xe887;" d="M315 375a128 128 0 1 0 128 128 128 128 0 0 0-128-128m0 214a86 86 0 1 1 86-86 86 86 0 0 1-86 86m61-86h0a61 61 0 1 1-61-61 61 61 0 0 1 61 61m437 0h0a42 42 0 0 1-42 41h-257a42 42 0 0 1 0-83h257a42 42 0 0 1 42 42m-498-433a128 128 0 1 0 128 127 128 128 0 0 0-128-127m0 213a86 86 0 1 1 86-86 86 86 0 0 1-86 86m498-86h0a44 44 0 0 1-44 44h-253a44 44 0 0 1 0-88h253a44 44 0 0 1 44 44" horiz-adv-x="1000" />

<glyph glyph-name="cloud-off" unicode="&#xe888;" d="M963 265a195 195 0 0 1-182 193 293 293 0 0 1-287 237 289 289 0 0 1-143-38l59-59a211 211 0 0 0 84 18 215 215 0 0 0 215-215v-19h59a117 117 0 0 0 70-211l55-55a194 194 0 0 1 70 149z m-766 435l-55-55 109-108h-17a234 234 0 0 1 26-468h458l78-78 55 55z m63-553a156 156 0 0 0 0 313h67l313-313z" horiz-adv-x="1000" />

<glyph glyph-name="printer" unicode="&#xe88c;" d="M730 114h-16v46h16a70 70 0 0 1 76 62v291a70 70 0 0 1-76 62h-460a70 70 0 0 1-76-62v-292a70 70 0 0 1 76-61h16v-46h-16a116 116 0 0 0-122 107v292a116 116 0 0 0 122 108h460a116 116 0 0 0 122-108v-292a116 116 0 0 0-122-107m-62-124h-336a75 75 0 0 0-75 76v256a75 75 0 0 0 75 75h336a75 75 0 0 0 75-75v-257a75 75 0 0 0-75-75m-336 348a17 17 0 0 1-17-17v-256a17 17 0 0 1 17-16h336a17 17 0 0 1 17 16v257a17 17 0 0 1-17 16z m400 237h-464v82a74 74 0 0 0 74 74h316a74 74 0 0 0 74-74z m-418 46h372v36a28 28 0 0 1-28 28h-316a28 28 0 0 1-28-28z m65-182h-61a40 40 0 0 0 0 79h61a40 40 0 0 0 0-79m242-318h-242a25 25 0 1 0 0 50h242a25 25 0 1 0 0-50m0 95h-242a25 25 0 1 0 0 50h242a25 25 0 1 0 0-50" horiz-adv-x="1000" />

<glyph glyph-name="left-bold" unicode="&#xe88d;" d="M572 588a38 38 0 0 0 27-64l-174-174 174-173a38 38 0 0 0-53-53l-200 200a38 38 0 0 0 0 53l200 200a38 38 0 0 0 26 11z" horiz-adv-x="1000" />

<glyph glyph-name="right-bold" unicode="&#xe88e;" d="M428 113a38 38 0 0 0-27 64l174 173-174 174a38 38 0 0 0 53 53l200-200a38 38 0 0 0 0-53l-200-200a38 38 0 0 0-26-11z" horiz-adv-x="1000" />

<glyph glyph-name="stopwatch" unicode="&#xe892;" d="M550 737l0 0v44a50 50 0 1 1-100 0v-44a389 389 0 0 1-201-88l-1 0-32 30a50 50 0 0 1-68-73l32-30c0 0 1 0 1-1a390 390 0 1 1 369 162m-50-704a317 317 0 1 0 317 317 318 318 0 0 0-317-317m34 387v177a33 33 0 0 1-67 0v-176a78 78 0 1 1 67-1" horiz-adv-x="1000" />

<glyph glyph-name="stop-circle" unicode="&#xe893;" d="M500 794a444 444 0 1 1 444-444 444 444 0 0 1-444 444m166-544a67 67 0 0 0-66-66h-200a67 67 0 0 0-66 66v200a67 67 0 0 0 66 66h200a67 67 0 0 0 66-66z" horiz-adv-x="1000" />

<glyph glyph-name="flag-circle" unicode="&#xe894;" d="M500 793a443 443 0 1 1 443-443 443 443 0 0 1-443 443m190-221v-479a27 27 0 0 0-54 0v169c-184 58-206-94-370-77a32 32 0 0 0-29 31v289a32 32 0 0 0 35 31c169-13 184 153 398 65a31 31 0 0 0 19-27h1z" horiz-adv-x="1000" />

<glyph glyph-name="baseball" unicode="&#xe895;" d="M500 793a443 443 0 1 1 443-443 443 443 0 0 1-443 443m-253-189l-2-1 2 1m-106-254a357 357 0 0 0 87 234 328 328 0 0 0 101-234 328 328 0 0 0-101-234 358 358 0 0 0-87 234m105-254l0 0 0 0m18-16a377 377 0 0 1 115 270 377 377 0 0 1-116 270 357 357 0 0 0 474 0 372 372 0 0 1 0-540 357 357 0 0 0-474 0m509 36a322 322 0 0 0 0 468 357 357 0 0 0 0-468" horiz-adv-x="1000" />

<glyph glyph-name="verified" unicode="&#xe8d9;" d="M958 392l-101 116 14 154-151 34-78 133-142-61-142 61-78-133-151-33 14-155-101-116 101-117-14-154 151-34 78-133 142 61 142-60 78 133 151 34-14 153z m-538-197l-158 159 62 61 96-97 244 245 62-62z" horiz-adv-x="1000" />

<glyph glyph-name="pn-end" unicode="&#xe8da;" d="M499-67a42 42 0 0 0-29 72l347 347-347 347a42 42 0 1 0 59 59l376-377a42 42 0 0 0 0-59l-376-376a42 42 0 0 0-30-12m-274 12l376 377a42 42 0 0 1 0 58l-376 377a42 42 0 0 1-59-59l347-347-347-347a42 42 0 1 1 59-59" horiz-adv-x="1000" />

<glyph glyph-name="pn-first" unicode="&#xe8db;" d="M501-67a42 42 0 0 1 29 72l-347 347 347 347a42 42 0 1 1-59 59l-376-377a42 42 0 0 1 0-59l376-376a42 42 0 0 1 30-13m275 13l-377 376a42 42 0 0 0 0 59l377 377a42 42 0 0 0 58-59l-347-347 347-347a42 42 0 1 0-58-59" horiz-adv-x="1000" />

<glyph glyph-name="pn-next" unicode="&#xe8dc;" d="M398-67a42 42 0 0 0-29 72l347 347-347 347a42 42 0 0 0 59 59l376-377a42 42 0 0 0 0-59l-376-376a42 42 0 0 0-30-13z" horiz-adv-x="1000" />

<glyph glyph-name="pn-prev" unicode="&#xe8dd;" d="M602-67a42 42 0 0 1 29 72l-347 347 347 347a42 42 0 1 1-59 59l-376-377a42 42 0 0 1 0-59l377-376a42 42 0 0 1 29-13" horiz-adv-x="1000" />

<glyph glyph-name="sitemap" unicode="&#xf0e8;" d="M1000 154v-179q0-22-16-38t-38-16h-178q-22 0-38 16t-16 38v179q0 22 16 38t38 15h53v107h-285v-107h53q23 0 38-15t16-38v-179q0-22-16-38t-38-16h-178q-23 0-38 16t-16 38v179q0 22 16 38t38 15h53v107h-285v-107h53q23 0 38-15t16-38v-179q0-22-16-38t-38-16h-178q-23 0-38 16t-16 38v179q0 22 16 38t38 15h53v107q0 29 21 51t51 21h285v107h-53q-23 0-38 16t-16 37v179q0 22 16 38t38 16h178q23 0 38-16t16-38v-179q0-22-16-37t-38-16h-53v-107h285q29 0 51-21t21-51v-107h53q23 0 38-15t16-38z" horiz-adv-x="1000" />
</font>
</defs>
</svg>
