<svg xmlns="http://www.w3.org/2000/svg" width="148" height="148" viewBox="0 0 148 148"><g transform="translate(-2664 -973)"><path d="M74.6,77.746,53.389,56.532,32.176,77.745A10,10,0,0,1,18.034,63.6L39.247,42.39,18.034,21.177A10,10,0,0,1,32.177,7.034L53.39,28.247,74.6,7.034A10,10,0,0,1,88.744,21.176L67.532,42.389,88.745,63.6A10,10,0,0,1,74.6,77.746Z" transform="translate(2683.895 1004.894)" fill="#fff"/><path d="M81.674,78.674a8,8,0,0,0,5.657-13.657L66.117,43.8a2,2,0,0,1,0-2.828L87.33,19.762A8,8,0,0,0,76.017,8.449L54.8,29.662a2,2,0,0,1-2.828,0L30.763,8.449A8,8,0,0,0,19.448,19.763L40.661,40.976a2,2,0,0,1,0,2.828L19.448,65.017A8,8,0,0,0,30.762,76.33L51.975,55.117a2,2,0,0,1,2.828,0L76.017,76.331a7.948,7.948,0,0,0,5.657,2.343m0,2A9.969,9.969,0,0,1,74.6,77.746L53.389,56.532,32.176,77.745A10,10,0,0,1,18.034,63.6L39.247,42.39,18.034,21.177A10,10,0,1,1,32.177,7.034L53.39,28.247,74.6,7.034A10,10,0,0,1,88.744,21.176L67.532,42.389,88.745,63.6a10,10,0,0,1-7.071,17.071Z" transform="translate(2683.895 1004.894)" fill="#fff"/><rect width="148" height="148" transform="translate(2664 973)" fill="none"/></g></svg>