<svg xmlns="http://www.w3.org/2000/svg" width="148" height="148" viewBox="0 0 148 148"><g transform="translate(-2757 -875)"><path d="M50,90a40.011,40.011,0,0,1-15.57-76.857A40.01,40.01,0,0,1,65.57,86.857,39.75,39.75,0,0,1,50,90Zm0-60a19.937,19.937,0,1,0,7.785,1.572A19.874,19.874,0,0,0,50,30Z" transform="translate(2781 899)" fill="#ededed"/><path d="M50,88A37.876,37.876,0,1,0,35.21,85.015,37.761,37.761,0,0,0,50,88m0-60a21.938,21.938,0,1,1-8.564,1.73A21.863,21.863,0,0,1,50,28m0,62a40.011,40.011,0,0,1-15.57-76.857A40.01,40.01,0,0,1,65.57,86.857,39.75,39.75,0,0,1,50,90Zm0-60a19.937,19.937,0,1,0,7.785,1.572A19.874,19.874,0,0,0,50,30Z" transform="translate(2781 899)" fill="#dbdbdb"/><rect width="148" height="148" transform="translate(2757 875)" fill="none"/></g></svg>