<svg xmlns="http://www.w3.org/2000/svg" width="148" height="148" viewBox="0 0 148 148"><g transform="translate(-3020 -927)"><path d="M63.64,77.782,42.426,56.568,21.213,77.782A10,10,0,0,1,7.071,63.64L28.284,42.427,7.071,21.214A10,10,0,0,1,21.214,7.071L42.427,28.284,63.64,7.071A10,10,0,1,1,77.782,21.213L56.569,42.426,77.783,63.64A10,10,0,1,1,63.64,77.782Z" transform="translate(3051.857 958.858)" fill="#ededed"/><path d="M70.711,78.711a8,8,0,0,0,5.657-13.657L53.74,42.426,76.367,19.8A8,8,0,0,0,65.054,8.486L42.427,31.113,19.8,8.486A8,8,0,0,0,8.485,19.8L31.113,42.427,8.486,65.054A8,8,0,0,0,19.8,76.367L42.426,53.74,65.054,76.368a7.947,7.947,0,0,0,5.657,2.344m0,2a9.968,9.968,0,0,1-7.071-2.93L42.426,56.568,21.213,77.782A10,10,0,0,1,7.071,63.64L28.284,42.427,7.071,21.214A10,10,0,0,1,21.214,7.071L42.427,28.284,63.64,7.071A10,10,0,1,1,77.782,21.213L56.569,42.426,77.783,63.64a10,10,0,0,1-7.071,17.071Z" transform="translate(3051.857 958.858)" fill="#dbdbdb"/><rect width="148" height="148" transform="translate(3020 927)" fill="none"/></g></svg>