<svg xmlns="http://www.w3.org/2000/svg" width="148" height="148" viewBox="0 0 148 148"><g transform="translate(-2704 -1082)"><g transform="translate(2738 1116)"><g fill="#fff"><path d="M 40.00050354003906 79.00010681152344 C 34.73509216308594 79.00010681152344 29.62768363952637 77.9691162109375 24.82015991210938 75.93576049804688 C 20.17612648010254 73.9715576171875 16.00514984130859 71.159423828125 12.42307186126709 67.57746124267578 C 8.840993881225586 63.99550628662109 6.02876091003418 59.82461547851562 4.064482688903809 55.18068313598633 C 2.031049489974976 50.37324905395508 1.000005125999451 45.26590347290039 1.000005125999451 40.00050354003906 C 1.000005125999451 34.73510360717773 2.031049489974976 29.62770462036133 4.064482688903809 24.82017135620117 C 6.028738498687744 20.17617225646973 8.840971946716309 16.00519371032715 12.42308330535889 12.42308330535889 C 16.00519371032715 8.840971946716309 20.17617225646973 6.028738498687744 24.82017135620117 4.064482688903809 C 29.62770462036133 2.031049489974976 34.73510360717773 1.000005125999451 40.00050354003906 1.000005125999451 C 45.26590347290039 1.000005125999451 50.37324905395508 2.031049489974976 55.18068313598633 4.064482688903809 C 59.82461547851562 6.02876091003418 63.99550628662109 8.840993881225586 67.57746124267578 12.42307186126709 C 71.159423828125 16.00514984130859 73.9715576171875 20.17612648010254 75.93576049804688 24.82015991210938 C 77.9691162109375 29.62768363952637 79.00010681152344 34.73509216308594 79.00010681152344 40.00050354003906 C 79.00010681152344 45.26591491699219 77.9691162109375 50.37327194213867 75.93576049804688 55.18070602416992 C 73.9715576171875 59.82462692260742 71.159423828125 63.99551773071289 67.57746887207031 67.57746887207031 C 63.99551773071289 71.159423828125 59.82462692260742 73.9715576171875 55.18070602416992 75.93576049804688 C 50.37327194213867 77.9691162109375 45.26591491699219 79.00010681152344 40.00050354003906 79.00010681152344 Z M 40.00050354003906 18.99980545043945 C 37.16595077514648 18.99980545043945 34.41561508178711 19.55521583557129 31.825927734375 20.65060424804688 C 29.32503890991211 21.70845031738281 27.07923889160156 23.22257232666016 25.15090560913086 25.15091705322266 C 23.22257232666016 27.07923889160156 21.70845031738281 29.32503890991211 20.65060424804688 31.825927734375 C 19.55521583557129 34.41561508178711 18.99980545043945 37.16595077514648 18.99980545043945 40.00050354003906 C 18.99980545043945 42.83506011962891 19.55521583557129 45.5853385925293 20.65061569213867 48.17494964599609 C 21.70841598510742 50.67570495605469 23.22253799438477 52.92140579223633 25.15093803405762 54.84967041015625 C 27.07928276062012 56.77790451049805 29.32508277893066 58.29191589355469 31.82596015930176 59.34963989257812 C 34.41560363769531 60.44492721557617 37.16592788696289 61.00029373168945 40.00050354003906 61.00029373168945 C 42.83506011962891 61.00029373168945 45.5853385925293 60.44492721557617 48.1749267578125 59.34962844848633 C 50.67568206787109 58.29192733764648 52.92139434814453 56.77791595458984 54.84965133666992 54.84963989257812 C 56.77791595458984 52.92139434814453 58.29192733764648 50.67568206787109 59.34963989257812 48.1749153137207 C 60.44492721557617 45.5853385925293 61.00029373168945 42.83506011962891 61.00029373168945 40.00050354003906 C 61.00029373168945 37.16592788696289 60.44492721557617 34.41560363769531 59.34963989257812 31.82594871520996 C 58.29191589355469 29.32508277893066 56.77790451049805 27.07928276062012 54.84965896606445 25.15092658996582 C 52.92140579223633 23.22253799438477 50.67570495605469 21.70841598510742 48.17494964599609 20.65060424804688 C 45.5853385925293 19.55521583557129 42.83506011962891 18.99980545043945 40.00050354003906 18.99980545043945 Z" stroke="none"/><path d="M 40.00049591064453 78.00009918212891 C 45.13136672973633 78.00009918212891 50.10766220092773 76.99568176269531 54.79114532470703 75.0147705078125 C 59.3159065246582 73.1009521484375 63.37994384765625 70.36079406738281 66.87036895751953 66.87036895751953 C 70.36079406738281 63.37994384765625 73.1009521484375 59.3159065246582 75.0147705078125 54.79115676879883 C 76.99568176269531 50.10766220092773 78.00009918212891 45.13136672973633 78.00009918212891 40.00049591064453 C 78.00009918212891 34.86962509155273 76.99568176269531 29.89328575134277 75.0147705078125 25.20969581604004 C 73.10096740722656 20.68487358093262 70.36079406738281 16.62073135375977 66.87034606933594 13.13015556335449 C 63.37989807128906 9.639602661132812 59.31586074829102 6.899343490600586 54.79111862182617 4.985485076904297 C 50.10761260986328 3.004461288452148 45.13133239746094 2.00000262260437 40.00049591064453 2.00000262260437 C 34.86966323852539 2.00000262260437 29.89333152770996 3.004461288452148 25.20972061157227 4.985496520996094 C 20.6849193572998 6.899343490600586 16.62077903747559 9.639614105224609 13.1301908493042 13.1301794052124 C 9.639614105224609 16.62077903747559 6.899343490600586 20.6849193572998 4.985485076904297 25.20973205566406 C 3.004461288452148 29.89333152770996 2.00000262260437 34.86966323852539 2.00000262260437 40.00049591064453 C 2.00000262260437 45.13133239746094 3.004461288452148 50.10761260986328 4.985485076904297 54.79113006591797 C 6.899343490600586 59.31586074829102 9.639602661132812 63.37989807128906 13.13015556335449 66.87034606933594 C 16.62073135375977 70.36079406738281 20.68487358093262 73.10096740722656 25.20969581604004 75.01475524902344 C 29.89328575134277 76.99568176269531 34.86962509155273 78.00009918212891 40.00049591064453 78.00009918212891 M 40.00049591064453 17.99980163574219 C 42.96963882446289 17.99980163574219 45.85100173950195 18.58180236816406 48.56450653076172 19.7296142578125 C 51.1844482421875 20.83782577514648 53.53700256347656 22.42391967773438 55.55677795410156 24.44384956359863 C 57.57653045654297 26.46369743347168 59.16250991821289 28.81633186340332 60.27064895629883 31.43640327453613 C 61.41835403442383 34.1500129699707 62.00029754638672 37.03139114379883 62.00029754638672 40.00049591064453 C 62.00029754638672 42.96960067749023 61.41835403442383 45.85093307495117 60.27063751220703 48.56444931030273 C 59.16250991821289 51.1844367980957 57.57651901245117 53.53699111938477 55.55675506591797 55.55673217773438 C 53.53699111938477 57.57651901245117 51.1844367980957 59.16250991821289 48.56446075439453 60.27063751220703 C 45.85093307495117 61.41835403442383 42.96960067749023 62.00029754638672 40.00049591064453 62.00029754638672 C 37.03139114379883 62.00029754638672 34.1500129699707 61.41835403442383 31.43641471862793 60.27064895629883 C 28.81633186340332 59.16250991821289 26.46369743347168 57.57653045654297 24.44386100769043 55.55678939819336 C 22.42391967773438 53.53700256347656 20.83782577514648 51.1844482421875 19.7296257019043 48.56453323364258 C 18.58180236816406 45.85100173950195 17.99980163574219 42.96963882446289 17.99980163574219 40.00049591064453 C 17.99980163574219 37.03137969970703 18.58179092407227 34.14997863769531 19.7296142578125 31.43635559082031 C 20.8378734588623 28.81626129150391 22.4239559173584 26.46362686157227 24.44380187988281 24.44382667541504 C 26.46362686157227 22.4239559173584 28.81626129150391 20.8378734588623 31.43635559082031 19.7296142578125 C 34.14997863769531 18.58179092407227 37.03137969970703 17.99980163574219 40.00049591064453 17.99980163574219 M 40.00049591064453 80.00009918212891 C 34.60052108764648 80.00009918212891 29.3620491027832 78.94253540039062 24.43061447143555 76.85678100585938 C 19.66736793518066 74.84214019775391 15.38955593109131 71.95803833007812 11.71596717834473 68.28457641601562 C 8.042379379272461 64.61110687255859 5.158178806304932 60.33338928222656 3.143484830856323 55.57025146484375 C 1.057626008987427 50.63888549804688 2.532240841901512e-06 45.40047454833984 2.532240841901512e-06 40.00049591064453 C 2.532240841901512e-06 34.60054397583008 1.057626008987427 29.36207389831543 3.143484830856323 24.43061447143555 C 5.158167362213135 19.66741371154785 8.042366981506348 15.38959121704102 11.71596717834473 11.71596717834473 C 15.38959121704102 8.042366981506348 19.66741371154785 5.158167362213135 24.43061447143555 3.143484830856323 C 29.36207389831543 1.057626008987427 34.60054397583008 2.532240841901512e-06 40.00049591064453 2.532240841901512e-06 C 45.40047454833984 2.532240841901512e-06 50.63888549804688 1.057626008987427 55.57025146484375 3.143484830856323 C 60.33338928222656 5.158178806304932 64.61110687255859 8.042379379272461 68.28457641601562 11.71596717834473 C 71.95803833007812 15.38955593109131 74.84214019775391 19.66736793518066 76.85678100585938 24.43061447143555 C 78.94253540039062 29.3620491027832 80.00009918212891 34.60052108764648 80.00009918212891 40.00049591064453 C 80.00009918212891 45.40047454833984 78.94253540039062 50.63889694213867 76.85678100585938 55.57025146484375 C 74.84214019775391 60.33338928222656 71.95804595947266 64.61110687255859 68.28457641601562 68.28457641601562 C 64.61110687255859 71.95804595947266 60.33338928222656 74.84214019775391 55.57025146484375 76.85678100585938 C 50.63889694213867 78.94253540039062 45.40047454833984 80.00009918212891 40.00049591064453 80.00009918212891 Z M 40.00049591064453 19.99980163574219 C 37.30052185058594 19.99980163574219 34.6812744140625 20.52862548828125 32.21548461914062 21.57161521911621 C 29.83382606506348 22.57901382446289 27.69486045837402 24.02115631103516 25.8580265045166 25.8580265045166 C 24.02115631103516 27.69486045837402 22.57901382446289 29.83382606506348 21.57161521911621 32.21548461914062 C 20.52862548828125 34.6812744140625 19.99980163574219 37.30052185058594 19.99980163574219 40.00049591064453 C 19.99980163574219 42.70048522949219 20.52862548828125 45.31968307495117 21.57161521911621 47.78536605834961 C 22.5789794921875 50.16691970825195 24.02114295959473 52.30577850341797 25.8580265045166 54.14253234863281 C 27.69484901428223 55.97927474975586 29.83381462097168 57.42132186889648 32.21548461914062 58.42862701416016 C 34.68123626708984 59.47150802612305 37.30049514770508 60.00029754638672 40.00049591064453 60.00029754638672 C 42.70048522949219 60.00029754638672 45.31969833374023 59.47150802612305 47.78536605834961 58.42862701416016 C 50.16694259643555 57.42133331298828 52.30580139160156 55.97928619384766 54.14253234863281 54.14253234863281 C 55.97928619384766 52.30580139160156 57.42133331298828 50.16694259643555 58.42862701416016 47.78536605834961 C 59.47150802612305 45.31969833374023 60.00029754638672 42.70048522949219 60.00029754638672 40.00049591064453 C 60.00029754638672 37.30049514770508 59.47150802612305 34.68123626708984 58.42862701416016 32.21548461914062 C 57.42132186889648 29.83381462097168 55.97927474975586 27.69484901428223 54.14253234863281 25.8580265045166 C 52.30577850341797 24.02114295959473 50.16691970825195 22.5789794921875 47.78536605834961 21.57161521911621 C 45.31968307495117 20.52862548828125 42.70048522949219 19.99980163574219 40.00049591064453 19.99980163574219 Z" stroke="none" fill="#fff"/></g></g><rect width="148" height="148" transform="translate(2704 1082)" fill="none"/></g></svg>