<svg xmlns="http://www.w3.org/2000/svg" xmlns:xlink="http://www.w3.org/1999/xlink" width="111.001" height="108" viewBox="0 0 111.001 108"><defs><radialGradient id="a" cx="0.5" cy="0.5" r="0.5" gradientUnits="objectBoundingBox"><stop offset="0" stop-color="#fff"/><stop offset="0.519" stop-color="#eaeaea" stop-opacity="0.431"/><stop offset="1" stop-color="gray" stop-opacity="0"/></radialGradient></defs><g transform="translate(-0.456 -0.274)"><ellipse cx="54.5" cy="54" rx="54.5" ry="54" transform="translate(0.456 0.274)" fill="#485d92"/><path d="M54.5,4A50.583,50.583,0,0,0,18.778,18.658,49.814,49.814,0,0,0,7.962,34.551a49.72,49.72,0,0,0,0,38.9A49.814,49.814,0,0,0,18.778,89.342a50.782,50.782,0,0,0,71.444,0,49.814,49.814,0,0,0,10.816-15.894,49.72,49.72,0,0,0,0-38.9A49.814,49.814,0,0,0,90.222,18.658,50.583,50.583,0,0,0,54.5,4m0-4C84.6,0,109,24.177,109,54s-24.4,54-54.5,54S0,83.823,0,54,24.4,0,54.5,0Z" transform="translate(0.456 0.274)" fill="#889cc9"/><path d="M54.5,2A52.583,52.583,0,0,0,17.37,17.237,51.8,51.8,0,0,0,6.122,33.766a51.72,51.72,0,0,0,0,40.468A51.8,51.8,0,0,0,17.37,90.763a52.782,52.782,0,0,0,74.259,0,51.8,51.8,0,0,0,11.248-16.529,51.72,51.72,0,0,0,0-40.468A51.8,51.8,0,0,0,91.63,17.237,52.583,52.583,0,0,0,54.5,2m0-2C84.6,0,109,24.177,109,54s-24.4,54-54.5,54S0,83.823,0,54,24.4,0,54.5,0Z" transform="translate(0.456 0.274)" fill="#9bb3e8"/><ellipse cx="31.5" cy="30.5" rx="31.5" ry="30.5" transform="translate(48.457 18.274)" opacity="0.24" fill="url(#a)"/></g></svg>