<svg xmlns="http://www.w3.org/2000/svg" xmlns:xlink="http://www.w3.org/1999/xlink" width="69.811" height="77.857" viewBox="0 0 69.811 77.857"><defs><clipPath id="a"><rect width="69.811" height="77.857" fill="none"/></clipPath></defs><g transform="translate(0 20)"><g transform="translate(0 -20)" clip-path="url(#a)"><path d="M54.232,3.014A2.863,2.863,0,0,0,51.37,5.877V59.729a2.862,2.862,0,1,0,5.725,0V5.877a2.863,2.863,0,0,0-2.862-2.862" transform="translate(12.716 0.125)" fill="#ffad08"/><path d="M64.976,68.856H12a3,3,0,1,1,0-6H56.144a2.291,2.291,0,0,0,2.29-2.29V2.29A2.289,2.289,0,0,0,56.144,0H50.683c0,.073-33.811,0-41.523,0A9.159,9.159,0,0,0,0,9.16V68.7a9.16,9.16,0,0,0,9.16,9.16H64.976a4.5,4.5,0,0,0,0-9" fill="#999"/><text transform="translate(34.999 53.929)" fill="#fff" font-size="12" font-family="JalnanOTF, Jalnan OTF"><tspan x="-15.132" y="0">HINT</tspan></text><path d="M5.044.722A2.135,2.135,0,0,1,3.192-.229l0-.005L1.2-3.762V.572H-1.988V-8.412a1.756,1.756,0,0,1,1.646-1.7,2.216,2.216,0,0,1,.23-.012,2.087,2.087,0,0,1,1.8.954l0,.006L3.688-5.618V-8.5a1.563,1.563,0,0,1,1.592-1.64,1.535,1.535,0,0,1,1.412.846,1.373,1.373,0,0,1,1.3-.774H14.16a1.443,1.443,0,0,1,1.472,1.532A1.477,1.477,0,0,1,14.16-6.964H12.824V.572h-3.5V-6.964H7.992a1.384,1.384,0,0,1-1.12-.518V-.936A1.7,1.7,0,0,1,5.24.714C5.174.72,5.109.722,5.044.722ZM4.058-.729a1.167,1.167,0,0,0,.986.451c.038,0,.075,0,.111,0,.246-.022.718-.187.718-.654V-8.5a.572.572,0,0,0-.592-.64.572.572,0,0,0-.592.64v6.7L.826-8.668a1.1,1.1,0,0,0-.938-.453,1.2,1.2,0,0,0-.124.006c-.259.028-.752.212-.752.7V-.428H.2V-7.566Zm6.27.3h1.5V-7.964H14.16c.438,0,.472-.435.472-.568,0-.353-.159-.532-.472-.532H7.992c-.313,0-.472.179-.472.532,0,.133.034.568.472.568h2.336Zm-12.576,1h-3.5V-8.436A1.633,1.633,0,0,1-4-10.136a1.633,1.633,0,0,1,1.748,1.7Zm-2.5-1h1.5V-8.436c0-.464-.252-.7-.748-.7s-.748.236-.748.7ZM-6,.572H-9.476V-3.3h-2.036V.572h-3.472V-8.412a1.673,1.673,0,0,1,1.736-1.724,1.673,1.673,0,0,1,1.736,1.724v2.02h2.036v-2.02A1.673,1.673,0,0,1-7.74-10.136,1.673,1.673,0,0,1-6-8.412Zm-2.472-1H-7V-8.412a.679.679,0,0,0-.736-.724.679.679,0,0,0-.736.724v3.02h-4.036v-3.02a.679.679,0,0,0-.736-.724.679.679,0,0,0-.736.724V-.428h1.472V-4.3h4.036Z" transform="translate(34.999 53.929)" fill="rgba(0,0,0,0)"/><circle cx="15" cy="15" r="15" transform="translate(17.999 6.929)" fill="#fff"/><path d="M15,2A13,13,0,0,0,5.808,24.192,13,13,0,0,0,24.192,5.808,12.915,12.915,0,0,0,15,2m0-2A15,15,0,1,1,0,15,15,15,0,0,1,15,0Z" transform="translate(17.999 6.929)" fill="#fff"/><g transform="translate(29.003 36.842) rotate(-120)"><path d="M21.834,21.834H0V0H21.834Z" transform="translate(0 0)" fill="none"/><path d="M9.416,7.278a5.459,5.459,0,1,0,0-3.639H5.459V1.82a1.819,1.819,0,0,0-3.639,0v1.82a1.819,1.819,0,1,0,0,3.639Zm5.14-3.639a1.819,1.819,0,1,1-1.82,1.82A1.825,1.825,0,0,1,14.556,3.639Z" transform="translate(0.91 5.459)" fill="#ffad08"/></g></g></g></svg>