<svg xmlns="http://www.w3.org/2000/svg" xmlns:xlink="http://www.w3.org/1999/xlink" width="96" height="85" viewBox="0 0 96 85"><defs><clipPath id="a"><rect width="96" height="85" transform="translate(147 189)" fill="#fff" stroke="#707070" stroke-width="1"/></clipPath><clipPath id="b"><rect width="42.36" height="42.36" fill="#999"/></clipPath></defs><g transform="translate(-147 -206)"><g transform="translate(0 17)" clip-path="url(#a)"><g transform="translate(-15 -24)"><rect width="79" height="98" rx="8" transform="translate(171 213)" fill="#999"/><rect width="69" height="94" rx="4" transform="translate(176 218)" fill="#ddd"/><rect width="65" height="110" rx="2" transform="translate(178 219)" fill="#ddd"/><g transform="translate(0 -3)"><rect width="59" height="53" rx="3" transform="translate(181 226)" fill="#fff"/><g transform="translate(189.321 230.64)"><path d="M342.7,330.511H330.511V342.7H342.7Zm-1.982,10.2h-8.223v-8.223h8.223Z" transform="translate(-324.564 -324.564)" fill="#999"/><path d="M342.7,330.511H330.511V342.7H342.7Zm-1.982,10.2h-8.223v-8.223h8.223Z" transform="translate(-324.564 -324.564)" fill="#999"/><rect width="4.756" height="4.756" transform="translate(9.662 9.662)" fill="#999"/><rect width="4.756" height="4.756" transform="translate(9.662 9.662)" fill="#999"/><path d="M1346.448,342.7h12.187V330.511h-12.187Zm10.2-1.982h-8.223v-8.223h8.223Z" transform="translate(-1322.222 -324.564)" fill="#999"/><path d="M1346.448,342.7h12.187V330.511h-12.187Zm10.2-1.982h-8.223v-8.223h8.223Z" transform="translate(-1322.222 -324.564)" fill="#999"/><rect width="4.756" height="4.756" transform="translate(27.942 9.662)" fill="#999"/><rect width="4.756" height="4.756" transform="translate(27.942 9.662)" fill="#999"/><path d="M330.511,1358.635H342.7v-12.187H330.511Zm1.982-10.2h8.223v8.223h-8.223Z" transform="translate(-324.564 -1322.222)" fill="#999"/><path d="M330.511,1358.635H342.7v-12.187H330.511Zm1.982-10.2h8.223v8.223h-8.223Z" transform="translate(-324.564 -1322.222)" fill="#999"/><rect width="4.756" height="4.756" transform="translate(9.662 27.942)" fill="#999"/><rect width="4.756" height="4.756" transform="translate(9.662 27.942)" fill="#999"/><rect width="2.824" height="1.982" transform="translate(5.947 20.189)" fill="#999"/><rect width="2.824" height="1.982" transform="translate(5.947 20.189)" fill="#999"/><path d="M581.054,344.753v1.982h11.716V330.511h-1.981v14.242Z" transform="translate(-570.599 -324.564)" fill="#999"/><path d="M581.054,344.753v1.982h11.716V330.511h-1.981v14.242Z" transform="translate(-570.599 -324.564)" fill="#999"/><rect width="7.802" height="1.982" transform="translate(20.189 24.226)" fill="#999"/><rect width="7.802" height="1.982" transform="translate(20.189 24.226)" fill="#999"/><path d="M1562.132,1618.909h-6.44v1.981h8.421v-7.381h-1.981Z" transform="translate(-1527.701 -1584.478)" fill="#999"/><path d="M1562.132,1618.909h-6.44v1.981h8.421v-7.381h-1.981Z" transform="translate(-1527.701 -1584.478)" fill="#999"/><path d="M1557.673,1615.491h2.576v-1.982h-4.558v3.27h1.981Z" transform="translate(-1527.701 -1584.478)" fill="#999"/><path d="M1557.673,1615.491h2.576v-1.982h-4.558v3.27h1.981Z" transform="translate(-1527.701 -1584.478)" fill="#999"/><path d="M1352.789,1126.618h1.981v-4.557h-8.323v1.981h6.341Z" transform="translate(-1322.221 -1101.872)" fill="#999"/><path d="M1352.789,1126.618h1.981v-4.557h-8.323v1.981h6.341Z" transform="translate(-1322.221 -1101.872)" fill="#999"/><rect width="2.081" height="1.982" transform="translate(34.332 24.226)" fill="#999"/><rect width="2.081" height="1.982" transform="translate(34.332 24.226)" fill="#999"/><path d="M1125.083,1615.194h-3.022v5.7h1.981v-3.716h3.022v-3.666h-1.982Z" transform="translate(-1101.872 -1584.478)" fill="#999"/><path d="M1125.083,1615.194h-3.022v5.7h1.981v-3.716h3.022v-3.666h-1.982Z" transform="translate(-1101.872 -1584.478)" fill="#999"/><path d="M1899.844.125V2.107h6.192V8.3h1.981V.125Z" transform="translate(-1865.661 -0.123)" fill="#999"/><path d="M1899.845.125V2.107h6.192V8.3h1.982V.125Z" transform="translate(-1865.661 -0.123)" fill="#ffad08"/><path d="M.125.125V8.3H2.107V2.107H8.3V.125Z" transform="translate(-0.123 -0.123)" fill="#999"/><g clip-path="url(#b)"><path d="M.125,8.3H2.107V2.106H8.3V.125H.125Z" transform="translate(-0.123 -0.123)" fill="#ffad08"/></g><path d="M.125,1899.844v8.174H8.3v-1.981H2.107v-6.193Z" transform="translate(-0.123 -1865.661)" fill="#999"/><g clip-path="url(#b)"><path d="M8.3,1908.017v-1.981H2.106v-6.192H.125v8.173Z" transform="translate(-0.122 -1865.66)" fill="#ffad08"/></g><path d="M1906.036,1899.844v6.193h-6.192v1.981h8.174v-8.174Z" transform="translate(-1865.66 -1865.661)" fill="#999"/><g clip-path="url(#b)"><path d="M1908.018,1899.844h-1.981v6.192h-6.192v1.982h8.174Z" transform="translate(-1865.66 -1865.661)" fill="#ffad08"/></g></g></g><rect width="59" height="14" rx="3" transform="translate(181 280)" fill="#ffad08"/><text transform="translate(211 291)" fill="#fff" font-size="10" font-family="JalnanOTF, Jalnan OTF" letter-spacing="-0.03em"><tspan x="-18.31" y="0">QR 스캔</tspan></text><path d="M-12.026,1.9a1.494,1.494,0,0,1-1.213-.571l-.5-.65a4.9,4.9,0,0,1-.8.069c-1.916,0-3.85-1.1-3.85-3.55V-4.99a3.275,3.275,0,0,1,1.317-2.791A4.31,4.31,0,0,1-14.54-8.54a3.752,3.752,0,0,1,3.513,1.951c.05-1.33.673-1.9,2.057-1.9h1.84a3.884,3.884,0,0,1,2.462.744A2.909,2.909,0,0,1-3.63-5.38v.12A2.947,2.947,0,0,1-4.679-3L-2.56.56H-5.994l-1.5-2.69H-7.98V.56h-2.457q0,.057-.014.115a1.422,1.422,0,0,1-.675.986A1.794,1.794,0,0,1-12.026,1.9Zm-1.3-2.333.887,1.157A.516.516,0,0,0-12.026.9a.791.791,0,0,0,.392-.1.417.417,0,0,0,.2-.284.366.366,0,0,0-.1-.307l-.937-1.065.265-.328A2.465,2.465,0,0,0-11.69-2.8V-4.99c0-2.427-2.374-2.55-2.85-2.55s-2.85.123-2.85,2.55V-2.8c0,2.427,2.374,2.55,2.85,2.55a3.974,3.974,0,0,0,.9-.107ZM-5.406-.44H-4.32l-1.7-2.852.411-.26A2,2,0,0,0-4.63-5.26v-.12c0-1.836-1.566-2.11-2.5-2.11H-8.97a1.251,1.251,0,0,0-.868.2,1.342,1.342,0,0,0-.192.876V-.44h1.05V-3.13h2.074Zm-5.779-.465.155.176v-.463A3.193,3.193,0,0,1-11.185-.905ZM17.22,1.26H10.78C9.416,1.26,8.86.692,8.86-.7v-.86a1.511,1.511,0,0,1,.209-.8A1.314,1.314,0,0,1,8.6-2.624l.028.374H5.622l-.057-.434a1.809,1.809,0,0,0-1.631-1.7A5.424,5.424,0,0,1,.051-2.25H.015A1.363,1.363,0,0,1-1.407-3.469,1.36,1.36,0,0,1-.3-4.989,3.084,3.084,0,0,0,2.054-7.652,1.488,1.488,0,0,1,3.585-8.993c.043,0,.087,0,.131,0h.007a1.462,1.462,0,0,1,1.4,1.574,4.327,4.327,0,0,1-.04.46A4.077,4.077,0,0,1,8.337-4.106a1.154,1.154,0,0,1,.419-.476,1.213,1.213,0,0,1-.5-1A1.225,1.225,0,0,1,8.773-6.6,1.327,1.327,0,0,1,8.35-7.58,1.187,1.187,0,0,1,9.56-8.82h2.58a1.866,1.866,0,0,1,1.4.462A1.323,1.323,0,0,1,14.79-9.13a1.359,1.359,0,0,1,1.1.527A1.35,1.35,0,0,1,17-9.13a1.335,1.335,0,0,1,1.38,1.35v6.52h-.888A1.213,1.213,0,0,1,18.56-.01,1.236,1.236,0,0,1,17.22,1.26ZM10.39-2.01c-.53,0-.53.293-.53.45V-.7a1.278,1.278,0,0,0,.156.791A1.132,1.132,0,0,0,10.78.26h6.44c.314,0,.34-.128.34-.27s-.026-.27-.34-.27H11.66a.68.68,0,0,1-.77-.75v-.53C10.89-1.778,10.851-2.01,10.39-2.01Zm1.5.73h1.53V-4.118a3.4,3.4,0,0,1-.729.869,3.849,3.849,0,0,1-1.168.675A1.442,1.442,0,0,1,11.89-1.56Zm4.74-.98h.75V-7.78A.349.349,0,0,0,17-8.13a.324.324,0,0,0-.37.35v2.2H15.16v-2.2a.337.337,0,0,0-.37-.35.324.324,0,0,0-.37.35v5.52h.74V-5.04h1.47ZM3.585-7.993a.5.5,0,0,0-.539.466A4.151,4.151,0,0,1,1.961-5.182,4.017,4.017,0,0,1-.083-4.012a.366.366,0,0,0-.33.44c.03.3.335.322.428.322H.03A4.461,4.461,0,0,0,3.286-5.184l.144-.2.244-.008.1,0a2.738,2.738,0,0,1,2.7,2.141H7.523A3.138,3.138,0,0,0,4.468-6.01l-.635-.015L4-6.639a3.594,3.594,0,0,0,.123-.807.464.464,0,0,0-.479-.545ZM9.427-3.771c-.1,0-.2.026-.218.217-.005.077-.015.228.279.268l.022,0a1.654,1.654,0,0,0,.248.012A2.915,2.915,0,0,0,12.95-6.23V-7.1c0-.512-.073-.72-.81-.72H9.56c-.057,0-.21,0-.21.24,0,.1.027.27.21.27h2.05a.658.658,0,0,1,.7.69v.78l.556-.2L11.85-4.69a2.524,2.524,0,0,1-2.156.926c-.081,0-.164,0-.248-.007ZM9.47-5.8c-.073,0-.21,0-.21.22s.142.21.21.21l1.4-.01a1.156,1.156,0,0,0,.411-.079L12.2-5.8ZM7.43,1.06H-.21A1.293,1.293,0,0,1-1.57-.28,1.3,1.3,0,0,1-.21-1.63H7.43A1.3,1.3,0,0,1,8.79-.28,1.293,1.293,0,0,1,7.43,1.06ZM-.21-.63a.312.312,0,0,0-.36.35A.306.306,0,0,0-.21.06H7.43a.306.306,0,0,0,.36-.34.312.312,0,0,0-.36-.35ZM-14.54-.96a1.821,1.821,0,0,1-1.81-1.78V-5.05a1.739,1.739,0,0,1,1.81-1.78,1.739,1.739,0,0,1,1.81,1.78v2.31A1.821,1.821,0,0,1-14.54-.96Zm0-4.87a.764.764,0,0,0-.81.78v2.31a.835.835,0,0,0,.81.78.835.835,0,0,0,.81-.78V-5.05A.764.764,0,0,0-14.54-5.83Zm7.36,2.01h-1.8V-5.98a.713.713,0,0,1,.79-.79h1.01A1.417,1.417,0,0,1-5.66-5.33v.07A1.417,1.417,0,0,1-7.18-3.82Zm-.8-1h.8c.335,0,.52-.156.52-.44v-.07c0-.284-.185-.44-.52-.44h-.8Z" transform="translate(211 291)" fill="rgba(0,0,0,0)"/></g></g></g></svg>