<svg xmlns="http://www.w3.org/2000/svg" xmlns:xlink="http://www.w3.org/1999/xlink" width="88.147" height="75.18" viewBox="0 0 88.147 75.18"><defs><clipPath id="a"><rect width="88.147" height="75.18" fill="none"/></clipPath></defs><g transform="translate(-151.928 -170.41)"><g transform="translate(149.927 169.41)"><g transform="translate(2.001 1)" clip-path="url(#a)"><path d="M15.118,53.93a8.346,8.346,0,1,0-8.346-8.346,8.346,8.346,0,0,0,8.346,8.346m49.568-8.346a8.346,8.346,0,1,0,8.346-8.346,8.346,8.346,0,0,0-8.346,8.346m-3.8,2.821a12.244,12.244,0,0,1,.306-6.735,12.619,12.619,0,0,1,6.526-7.31,11.9,11.9,0,0,1,7.417-1.073A1.012,1.012,0,0,0,76.3,32.274V4.133A4.133,4.133,0,0,0,72.161,0H16.315a4.136,4.136,0,0,0-4.137,4.137v28.08a1.02,1.02,0,0,0,1.162,1.02,12,12,0,0,1,8.745,2.13A12.19,12.19,0,0,1,27.269,48.4a1.018,1.018,0,0,0,1.005,1.239h2.408c.774,0,1.164-.341,1.278-.811a12.467,12.467,0,0,1,24.229,0,1.034,1.034,0,0,0,.995.811h2.689a1.021,1.021,0,0,0,1.009-1.235M43.041,28.44H28.562a2.585,2.585,0,1,1,0-5.171H43.041a2.585,2.585,0,1,1,0,5.171M28.562,18.1a2.585,2.585,0,1,1,0-5.171H61.656a2.585,2.585,0,1,1,0,5.171ZM23.43,58.139H6.8a6.8,6.8,0,0,0-6.8,6.8v1.963a2.068,2.068,0,0,0,2.068,2.068H24.241a1.039,1.039,0,0,0,.993-.782,10.928,10.928,0,0,1,3.665-5.52,1.066,1.066,0,0,0,.232-1.421,6.778,6.778,0,0,0-5.7-3.113m57.914,0H64.719a6.781,6.781,0,0,0-5.7,3.113,1.068,1.068,0,0,0,.232,1.421,10.928,10.928,0,0,1,3.665,5.52,1.039,1.039,0,0,0,.993.782H86.081a2.068,2.068,0,0,0,2.068-2.068V64.944a6.8,6.8,0,0,0-6.8-6.8" transform="translate(0 -0.001)" fill="#999"/><path d="M29.118,37.7a8.346,8.346,0,1,0-8.346-8.346A8.346,8.346,0,0,0,29.118,37.7M37.43,41.9H20.8a6.8,6.8,0,0,0-6.8,6.8v1.963a2.068,2.068,0,0,0,2.068,2.068h26.1a2.068,2.068,0,0,0,2.068-2.068V48.709a6.8,6.8,0,0,0-6.8-6.8" transform="translate(14.957 22.439)" fill="#ffad08"/></g></g></g></svg>