<svg xmlns="http://www.w3.org/2000/svg" xmlns:xlink="http://www.w3.org/1999/xlink" width="46" height="46" viewBox="0 0 46 46"><defs><clipPath id="a"><rect width="42" height="42.867" fill="none"/></clipPath></defs><g transform="translate(-5363 -2143)"><g transform="translate(5365 2145)" clip-path="url(#a)"><path d="M42,26.617a21,21,0,1,1-21-21,21,21,0,0,1,21,21" transform="translate(0 -4.75)" fill="#eadbe6"/><path d="M45.882,20.133A20.133,20.133,0,1,1,25.75,0,20.133,20.133,0,0,1,45.882,20.133" transform="translate(-4.75)" fill="#fbfdfc"/><path d="M59.569,36.876A17.075,17.075,0,1,1,42.493,19.8,17.075,17.075,0,0,1,59.569,36.876" transform="translate(-21.493 -16.744)" fill="#a2195b"/><path d="M64.374,42.755a16,16,0,1,1-16-16,16,16,0,0,1,16,16" transform="translate(-27.372 -22.622)" fill="#d8086d"/><path d="M34.517,48.707c0-8.838,7.82-16,17.466-16a18.393,18.393,0,0,1,11.034,3.6A16,16,0,1,0,34.71,51.09a14.8,14.8,0,0,1-.194-2.383" transform="translate(-27.372 -22.622)" fill="#e65295"/><path d="M56.425,51.078c-2.007,2.007-4.355,2.913-5.244,2.024s.017-3.237,2.024-5.244,4.354-2.913,5.244-2.024-.017,3.237-2.024,5.244" transform="translate(-42.99 -38.469)" fill="#efe9f4"/><path d="M93.973,97.086a15.728,15.728,0,0,1-5.214-.774c-1.611-.593-2.462-1.479-2.462-2.563a7.059,7.059,0,0,1,1.759-4.636A7.692,7.692,0,0,1,91.091,87a4.769,4.769,0,1,1,5.763,0,7.692,7.692,0,0,1,3.035,2.109,7.059,7.059,0,0,1,1.759,4.636c0,1.084-.851,1.971-2.462,2.563a15.728,15.728,0,0,1-5.214.774" transform="translate(-72.973 -66.33)" fill="#a2195b"/><path d="M98.451,90.195a4.215,4.215,0,1,0-2.9,0,6.833,6.833,0,0,0-5.675,6.583c0,3.713,14.245,3.713,14.245,0a6.833,6.833,0,0,0-5.675-6.583" transform="translate(-76.003 -69.36)" fill="#fff"/></g><rect width="46" height="46" transform="translate(5363 2143)" fill="none"/></g></svg>